RobotoSerifText-SuperWdth530.ufo
<glyph name="slash" format="2">
  <advance width="428.176"/>
  <unicode hex="002F"/>
  <outline>
    <contour>
      <point x="288.2" y="732.8" type="line"/>
      <point x="-6.602" y="-146.92" type="line"/>
      <point x="140.446" y="-146.92" type="line"/>
      <point x="435.24800000000005" y="732.8" type="line"/>
    </contour>
  </outline>
</glyph>
<glyph name="six" format="2">
  <advance width="467.88"/>
  <unicode hex="0036"/>
  <outline>
    <contour>
      <point x="410.772" y="654.2" type="line"/>
      <point x="295.59663794940195" y="617.7382041887446"/>
      <point x="218.74800000000002" y="493.42"/>
      <point x="218.74800000000002" y="286.4" type="curve" smooth="yes"/>
      <point x="218.74800000000002" y="121.86"/>
      <point x="221.678574850314" y="75.80000000000001"/>
      <point x="233.952" y="75.80000000000001" type="curve" smooth="yes"/>
      <point x="245.972140845054" y="75.80000000000001"/>
      <point x="246.402" y="124.58"/>
      <point x="246.402" y="229.0" type="curve" smooth="yes"/>
      <point x="246.402" y="312.52"/>
      <point x="248.215669291392" y="367.2"/>
      <point x="225.35" y="367.2" type="curve" smooth="yes"/>
      <point x="211.4135" y="367.2"/>
      <point x="199.410167478416" y="331.4458470520822"/>
      <point x="185.21" y="283.42" type="curve"/>
      <point x="181.598" y="355.2" type="line"/>
      <point x="193.316353778236" y="401.2431689769328"/>
      <point x="220.30869406391002" y="453.0"/>
      <point x="291.954" y="453.0" type="curve" smooth="yes"/>
      <point x="392.871727699534" y="453.0"/>
      <point x="458.878" y="376.74"/>
      <point x="458.878" y="236.74" type="curve" smooth="yes"/>
      <point x="458.878" y="81.54"/>
      <point x="373.2496" y="-10.0"/>
      <point x="240.024" y="-10.0" type="curve" smooth="yes"/>
      <point x="98.686977099286" y="-10.0"/>
      <point x="9.002000000000002" y="83.4"/>
      <point x="9.002000000000002" y="295.0" type="curve" smooth="yes"/>
      <point x="9.002000000000002" y="513.0"/>
      <point x="167.136091682314" y="696.820611776698"/>
      <point x="398.416" y="740.0" type="curve"/>
    </contour>
  </outline>
</glyph>
<glyph name="less" format="2">
  <advance width="467.88"/>
  <unicode hex="003C"/>
  <outline>
    <contour>
      <point x="397.298" y="586.42" type="line"/>
      <point x="70.382" y="409.68" type="line"/>
      <point x="70.382" y="336.7" type="line"/>
      <point x="88.292" y="289.32" type="line"/>
      <point x="397.298" y="451.2" type="line"/>
    </contour>
    <contour>
      <point x="397.298" y="248.66" type="line"/>
      <point x="88.822" y="409.68" type="line"/>
      <point x="70.382" y="354.7" type="line"/>
      <point x="70.382" y="280.32" type="line"/>
      <point x="397.298" y="103.58" type="line"/>
    </contour>
  </outline>
</glyph>
<glyph name="I" format="2">
  <advance width="350"/>
  <unicode hex="0049"/>
  <anchor x="158" y="741.0" name="top"/>
  <anchor x="207" y="0.0" name="right"/>
  <anchor x="158" y="0.0" name="bottom"/>
  <outline>
    <contour>
      <point x="52" y="113" type="line" smooth="yes"/>
      <point x="52" y="84"/>
      <point x="40" y="77"/>
      <point x="23" y="77" type="curve" smooth="yes"/>
      <point x="15" y="77" type="line"/>
      <point x="15" y="0" type="line"/>
      <point x="334" y="0" type="line"/>
      <point x="334" y="77" type="line"/>
      <point x="326" y="77" type="line" smooth="yes"/>
      <point x="309" y="77"/>
      <point x="298" y="84"/>
      <point x="298" y="113" type="curve" smooth="yes"/>
      <point x="298" y="597" type="line" smooth="yes"/>
      <point x="298" y="626"/>
      <point x="309" y="633"/>
      <point x="326" y="633" type="curve" smooth="yes"/>
      <point x="334" y="633" type="line"/>
      <point x="334" y="710" type="line"/>
      <point x="15" y="710" type="line"/>
      <point x="15" y="633" type="line"/>
      <point x="23" y="633" type="line" smooth="yes"/>
      <point x="40" y="633"/>
      <point x="52" y="626"/>
      <point x="52" y="597" type="curve" smooth="yes"/>
    </contour>
  </outline>
</glyph>
<glyph name="Q" format="2">
  <advance width="683"/>
  <unicode hex="0051"/>
  <outline>
    <contour>
      <point x="294" y="3" type="line"/>
      <point x="292" y="-163"/>
      <point x="358" y="-230"/>
      <point x="507" y="-230" type="curve" smooth="yes"/>
      <point x="559" y="-230"/>
      <point x="611" y="-215"/>
      <point x="636" y="-196" type="curve"/>
      <point x="636" y="-31" type="line"/>
      <point x="616" y="-44"/>
      <point x="553" y="-71"/>
      <point x="486" y="-71" type="curve" smooth="yes"/>
      <point x="427" y="-71"/>
      <point x="394" y="-53"/>
      <point x="397" y="10" type="curve"/>
    </contour>
    <contour>
      <point x="342" y="-10" type="curve" smooth="yes"/>
      <point x="533" y="-10"/>
      <point x="663" y="134"/>
      <point x="663" y="355" type="curve" smooth="yes"/>
      <point x="663" y="575"/>
      <point x="533" y="720"/>
      <point x="342" y="720" type="curve" smooth="yes"/>
      <point x="150" y="720"/>
      <point x="20" y="575"/>
      <point x="20" y="355" type="curve" smooth="yes"/>
      <point x="20" y="134"/>
      <point x="150" y="-10"/>
    </contour>
    <contour>
      <point x="342" y="84" type="curve" smooth="yes"/>
      <point x="298" y="84"/>
      <point x="274" y="177"/>
      <point x="274" y="355" type="curve" smooth="yes"/>
      <point x="274" y="533"/>
      <point x="298" y="626"/>
      <point x="342" y="626" type="curve" smooth="yes"/>
      <point x="386" y="626"/>
      <point x="409" y="533"/>
      <point x="409" y="355" type="curve" smooth="yes"/>
      <point x="409" y="177"/>
      <point x="386" y="84"/>
    </contour>
  </outline>
</glyph>
<glyph name="S" format="2">
  <advance width="535"/>
  <unicode hex="0053"/>
  <anchor x="294" y="741.0" name="top"/>
  <anchor x="294" y="0.0" name="bottom"/>
  <outline>
    <contour>
      <point x="268" y="83" type="curve" smooth="yes"/>
      <point x="213" y="83"/>
      <point x="148" y="132"/>
      <point x="118" y="224" type="curve"/>
      <point x="15" y="224" type="line"/>
      <point x="15" y="0" type="line"/>
      <point x="97" y="0" type="line"/>
      <point x="117" y="169" type="line"/>
      <point x="117" y="173"/>
      <point x="86" y="154"/>
      <point x="62" y="181" type="curve"/>
      <point x="104" y="37"/>
      <point x="191" y="-10"/>
      <point x="290" y="-10" type="curve" smooth="yes"/>
      <point x="452" y="-10"/>
      <point x="530" y="90"/>
      <point x="530" y="238" type="curve" smooth="yes"/>
      <point x="530" y="385"/>
      <point x="447" y="437"/>
      <point x="346" y="469" type="curve" smooth="yes"/>
      <point x="272" y="493"/>
      <point x="222" y="507"/>
      <point x="222" y="563" type="curve" smooth="yes"/>
      <point x="222" y="603"/>
      <point x="239" y="628"/>
      <point x="278" y="628" type="curve" smooth="yes"/>
      <point x="329" y="628"/>
      <point x="372" y="591"/>
      <point x="388" y="521" type="curve"/>
      <point x="482" y="521" type="line"/>
      <point x="482" y="710" type="line"/>
      <point x="404" y="710" type="line"/>
      <point x="382" y="566" type="line"/>
      <point x="403" y="558"/>
      <point x="419" y="568"/>
      <point x="439" y="555" type="curve"/>
      <point x="407" y="678"/>
      <point x="355" y="720"/>
      <point x="248" y="720" type="curve" smooth="yes"/>
      <point x="129" y="720"/>
      <point x="24" y="641"/>
      <point x="24" y="499" type="curve" smooth="yes"/>
      <point x="24" y="351"/>
      <point x="104" y="295"/>
      <point x="187" y="265" type="curve" smooth="yes"/>
      <point x="282" y="232"/>
      <point x="330" y="215"/>
      <point x="330" y="158" type="curve" smooth="yes"/>
      <point x="330" y="108"/>
      <point x="310" y="83"/>
    </contour>
  </outline>
</glyph>
<glyph name="e" format="2">
  <advance width="526"/>
  <unicode hex="0065"/>
  <anchor x="234" y="551.0" name="top"/>
  <anchor x="363" y="1.0" name="right"/>
  <anchor x="252" y="0.0" name="bottom"/>
  <outline>
    <contour>
      <point x="285" y="-10" type="curve" smooth="yes"/>
      <point x="400" y="-10"/>
      <point x="464" y="43"/>
      <point x="497" y="122" type="curve"/>
      <point x="428" y="170" type="line"/>
      <point x="410" y="127"/>
      <point x="379" y="82"/>
      <point x="330" y="82" type="curve" smooth="yes"/>
      <point x="256" y="82"/>
      <point x="246" y="144"/>
      <point x="246" y="255" type="curve" smooth="yes"/>
      <point x="246" y="387"/>
      <point x="252" y="435"/>
      <point x="277" y="435" type="curve" smooth="yes"/>
      <point x="300" y="435"/>
      <point x="306" y="401"/>
      <point x="308" y="268" type="curve"/>
      <point x="322" y="298" type="line"/>
      <point x="231" y="298" type="line"/>
      <point x="231" y="222" type="line"/>
      <point x="511" y="222" type="line"/>
      <point x="510" y="423"/>
      <point x="427" y="523"/>
      <point x="270" y="523" type="curve" smooth="yes"/>
      <point x="120" y="523"/>
      <point x="15" y="417"/>
      <point x="15" y="255" type="curve" smooth="yes"/>
      <point x="15" y="91"/>
      <point x="113" y="-10"/>
    </contour>
  </outline>
</glyph>
<glyph name="i" format="2">
  <advance width="292"/>
  <unicode hex="0069"/>
  <anchor x="142" y="551.0" name="top"/>
  <anchor x="181" y="-10.0" name="right"/>
  <anchor x="141" y="-10.0" name="bottom"/>
  <outline>
    <contour>
      <point x="145" y="565" type="curve" smooth="yes"/>
      <point x="218" y="565"/>
      <point x="259" y="599"/>
      <point x="259" y="657" type="curve" smooth="yes"/>
      <point x="259" y="714"/>
      <point x="218" y="749"/>
      <point x="145" y="749" type="curve" smooth="yes"/>
      <point x="73" y="749"/>
      <point x="31" y="714"/>
      <point x="31" y="657" type="curve" smooth="yes"/>
      <point x="31" y="598"/>
      <point x="73" y="565"/>
    </contour>
    <contour>
      <point x="261" y="513" type="line"/>
      <point x="10" y="513" type="line"/>
      <point x="10" y="438" type="line"/>
      <point x="16" y="436" type="line" smooth="yes"/>
      <point x="27" y="430"/>
      <point x="30" y="425"/>
      <point x="30" y="407" type="curve" smooth="yes"/>
      <point x="30" y="99" type="line" smooth="yes"/>
      <point x="30" y="78"/>
      <point x="22" y="72"/>
      <point x="11" y="72" type="curve" smooth="yes"/>
      <point x="10" y="72" type="line"/>
      <point x="10" y="0" type="line"/>
      <point x="282" y="0" type="line"/>
      <point x="282" y="72" type="line"/>
      <point x="280" y="72" type="line" smooth="yes"/>
      <point x="271" y="72"/>
      <point x="261" y="78"/>
      <point x="261" y="99" type="curve" smooth="yes"/>
    </contour>
  </outline>
</glyph>
<glyph name="bar" format="2">
  <advance width="254.556"/>
  <unicode hex="007C"/>
  <outline>
    <contour>
      <point x="58.120000000000005" y="767.2" type="line"/>
      <point x="58.120000000000005" y="-164.12" type="line"/>
      <point x="195.872" y="-164.12" type="line"/>
      <point x="195.872" y="767.2" type="line"/>
    </contour>
  </outline>
</glyph>
<glyph name="cedilla" format="2">
  <advance width="501.3"/>
  <unicode hex="00B8"/>
  <anchor x="248.12" y="34.0" name="_bottom"/>
  <outline>
    <contour>
      <point x="267.548" y="4.0" type="line"/>
      <point x="184.328" y="4.0" type="line"/>
      <point x="156.99200000000002" y="-100.16" type="line"/>
      <point x="173.89000000000001" y="-100.16" type="line" smooth="yes"/>
      <point x="210.82621621624202" y="-100.16"/>
      <point x="221.89000000000001" y="-111.7"/>
      <point x="221.89000000000001" y="-132.24" type="curve" smooth="yes"/>
      <point x="221.89000000000001" y="-150.92000000000002"/>
      <point x="214.088" y="-163.34"/>
      <point x="197.802" y="-163.34" type="curve" smooth="yes"/>
      <point x="179.95" y="-163.34"/>
      <point x="160.006114967668" y="-149.228954676374"/>
      <point x="136.092" y="-127.22" type="curve"/>
      <point x="93.588" y="-189.6" type="line"/>
      <point x="124.97200000000001" y="-220.16"/>
      <point x="163.77" y="-237.72"/>
      <point x="220.584" y="-237.72" type="curve" smooth="yes"/>
      <point x="294.124974789932" y="-237.72"/>
      <point x="342.99" y="-207.14"/>
      <point x="342.99" y="-137.98" type="curve" smooth="yes"/>
      <point x="342.99" y="-80.23395000000001"/>
      <point x="302.1389485970644" y="-48.83277705908944"/>
      <point x="228.48000000000002" y="-53.7" type="curve"/>
      <point x="208.29174657824942" y="-76.85207133075541"/>
      <point x="233.5411310739288" y="-75.67917955622863"/>
      <point x="236.07" y="-66.14" type="curve"/>
    </contour>
  </outline>
</glyph>
<glyph name="ae" format="2">
  <advance width="787.158"/>
  <unicode hex="00E6"/>
  <anchor x="403.78200000000004" y="555.0" name="top"/>
  <outline>
    <contour>
      <point x="290.872" y="304.76" type="line"/>
      <point x="103.508" y="280.28"/>
      <point x="8.708000000000002" y="238.58"/>
      <point x="8.708000000000002" y="126.86" type="curve" smooth="yes"/>
      <point x="8.708000000000002" y="35.84"/>
      <point x="64.39200000000001" y="-10.0"/>
      <point x="171.97199999999998" y="-10.0" type="curve" smooth="yes"/>
      <point x="288.118" y="-10.0"/>
      <point x="336.024" y="61.76"/>
      <point x="350.79200000000003" y="143.56" type="curve"/>
      <point x="383.436" y="188.42000000000002"/>
      <point x="295.932" y="189.3"/>
      <point x="304.722" y="165.94" type="curve"/>
      <point x="301.78000000000003" y="116.03999999999999"/>
      <point x="277.29200000000003" y="77.24000000000001"/>
      <point x="250.54399999999998" y="77.24000000000001" type="curve" smooth="yes"/>
      <point x="225.92600000000002" y="77.24000000000001"/>
      <point x="215.524" y="96.78"/>
      <point x="215.524" y="137.32" type="curve" smooth="yes"/>
      <point x="215.524" y="189.82"/>
      <point x="239.29399999999998" y="223.54"/>
      <point x="291.178" y="235.7" type="curve"/>
    </contour>
    <contour>
      <point x="545.9580000000001" y="-10.0" type="curve" smooth="yes"/>
      <point x="660.81" y="-10.0"/>
      <point x="725.12" y="44.58"/>
      <point x="758.846" y="124.2" type="curve"/>
      <point x="689.5699999999999" y="172.22" type="line"/>
      <point x="671.342" y="129.07999999999998"/>
      <point x="640.9580000000001" y="83.97999999999999"/>
      <point x="590.628" y="83.97999999999999" type="curve" smooth="yes"/>
      <point x="517.704" y="83.97999999999999"/>
      <point x="507.054" y="144.22"/>
      <point x="507.054" y="255.16" type="curve" smooth="yes"/>
      <point x="507.054" y="386.88"/>
      <point x="515.6800000000001" y="433.62"/>
      <point x="537.238" y="433.62" type="curve" smooth="yes"/>
      <point x="558.844" y="433.62"/>
      <point x="566.21" y="401.58"/>
      <point x="567.646" y="268.44" type="curve"/>
      <point x="590.31" y="304.76" type="line"/>
      <point x="381.6" y="304.76" type="line"/>
      <point x="382.6" y="222.1" type="line"/>
      <point x="772.3199999999999" y="222.1" type="line"/>
      <point x="771.884" y="423.42"/>
      <point x="687.652" y="523.3"/>
      <point x="554.384" y="523.3" type="curve" smooth="yes"/>
      <point x="452.528134453696" y="523.3"/>
      <point x="381.863747557812" y="460.9553744850842"/>
      <point x="356.464" y="341.44" type="curve"/>
      <point x="330.768697031084" y="315.2833662056102"/>
      <point x="303.004" y="288.14"/>
      <point x="275.044" y="278.66" type="curve"/>
      <point x="275.044" y="91.14"/>
      <point x="373.398" y="-10.0"/>
    </contour>
    <contour>
      <point x="235.776" y="523.16" type="curve" smooth="yes"/>
      <point x="131.15" y="523.16"/>
      <point x="63.61600000000001" y="475.12"/>
      <point x="40.516" y="451.98" type="curve"/>
      <point x="40.516" y="342.96" type="line"/>
      <point x="206.498" y="342.96" type="line"/>
      <point x="206.498" y="447.68" type="line"/>
      <point x="162.83999999999997" y="442.56"/>
      <point x="152.50799999999998" y="408.94"/>
      <point x="188.764" y="387.12" type="curve"/>
      <point x="195.46" y="414.52"/>
      <point x="213.064" y="436.06"/>
      <point x="236.28199999999998" y="436.06" type="curve" smooth="yes"/>
      <point x="258.876" y="436.06"/>
      <point x="275.044" y="417.66"/>
      <point x="275.044" y="369.78" type="curve" smooth="yes"/>
      <point x="275.044" y="260.66" type="line"/>
      <point x="419.86800000000005" y="322.92" type="line"/>
      <point x="419.86800000000005" y="460.84000000000003"/>
      <point x="371.386" y="523.16"/>
    </contour>
  </outline>
</glyph>
<glyph name="Lslash" format="2">
  <advance width="549"/>
  <unicode hex="0141"/>
  <outline>
    <contour>
      <point x="-0.2239999999999931" y="176.82" type="line"/>
      <point x="-0.2239999999999931" y="275.2" type="line"/>
      <point x="410.972" y="531.16" type="line"/>
      <point x="410.972" y="432.78" type="line"/>
    </contour>
    <component base="L" xOffset="-38.352000000000004"/>
  </outline>
</glyph>
<glyph name="Uhorn" format="2">
  <advance width="690.064"/>
  <unicode hex="01AF"/>
  <anchor x="348.38" y="663.0" name="top"/>
  <outline>
    <contour>
      <point x="435.39" y="710.0" type="line"/>
      <point x="435.39" y="632.9" type="line"/>
      <point x="442.438" y="632.9" type="line" smooth="yes"/>
      <point x="456.112" y="632.9"/>
      <point x="471.634" y="626.62"/>
      <point x="471.634" y="612.62" type="curve" smooth="yes"/>
      <point x="471.634" y="278.74" type="line" smooth="yes"/>
      <point x="471.634" y="148.84"/>
      <point x="439.72" y="95.98"/>
      <point x="382.106" y="95.98" type="curve" smooth="yes"/>
      <point x="316.36" y="95.98"/>
      <point x="294.826" y="144.54"/>
      <point x="294.826" y="278.74" type="curve" smooth="yes"/>
      <point x="294.826" y="622.9" type="line" smooth="yes"/>
      <point x="294.826" y="629.9"/>
      <point x="310.91200000000003" y="632.9"/>
      <point x="323.48" y="632.9" type="curve" smooth="yes"/>
      <point x="331.07000000000005" y="632.9" type="line"/>
      <point x="331.07000000000005" y="710.0" type="line"/>
      <point x="12.862000000000002" y="710.0" type="line"/>
      <point x="12.862000000000002" y="632.9" type="line"/>
      <point x="21.346000000000004" y="632.9" type="line" smooth="yes"/>
      <point x="38.068" y="632.9"/>
      <point x="49.742" y="625.9"/>
      <point x="49.742" y="596.9" type="curve" smooth="yes"/>
      <point x="49.742" y="278.74" type="line" smooth="yes"/>
      <point x="49.742" y="76.16"/>
      <point x="151.014" y="-10.0"/>
      <point x="317.702" y="-10.0" type="curve" smooth="yes"/>
      <point x="456.418" y="-10.0"/>
      <point x="560.4200000000001" y="73.44"/>
      <point x="560.4200000000001" y="278.74" type="curve" smooth="yes"/>
      <point x="560.4200000000001" y="599.5" type="line" smooth="yes"/>
      <point x="560.4200000000001" y="623.78"/>
      <point x="565.422" y="634.2"/>
      <point x="582.402" y="638.48" type="curve" smooth="yes"/>
      <point x="665.682" y="655.34"/>
      <point x="728.0260000000001" y="722.66"/>
      <point x="728.0260000000001" y="877.0" type="curve"/>
      <point x="576.354" y="877.0" type="line"/>
      <point x="573.318" y="743.12"/>
      <point x="565.092" y="710.0"/>
      <point x="461.00800000000004" y="710.0" type="curve" smooth="yes"/>
    </contour>
  </outline>
</glyph>
<glyph name="dotaccent" format="2">
  <advance width="417.844"/>
  <unicode hex="02D9"/>
  <anchor x="208.64" y="526.0" name="_top"/>
  <outline>
    <contour>
      <point x="206.804" y="564.8199999999999" type="curve" smooth="yes"/>
      <point x="280.504" y="564.8199999999999"/>
      <point x="321.126" y="599.0"/>
      <point x="321.126" y="656.78" type="curve" smooth="yes"/>
      <point x="321.126" y="714.42"/>
      <point x="280.504" y="748.6"/>
      <point x="206.804" y="748.6" type="curve" smooth="yes"/>
      <point x="134.21" y="748.6"/>
      <point x="92.952" y="714.42"/>
      <point x="92.952" y="656.78" type="curve" smooth="yes"/>
      <point x="92.952" y="598.14"/>
      <point x="134.21" y="564.8199999999999"/>
    </contour>
  </outline>
</glyph>
<glyph name="ogonek" format="2">
  <advance width="501.3"/>
  <unicode hex="02DB"/>
  <anchor x="297.25" y="9.0" name="_right"/>
  <outline>
    <contour>
      <point x="313.948" y="41.879999999999995" type="line"/>
      <point x="170.36" y="-6.52"/>
      <point x="98.024" y="-53.78"/>
      <point x="98.024" y="-139.84" type="curve" smooth="yes"/>
      <point x="98.024" y="-208.02"/>
      <point x="148.848" y="-244.6"/>
      <point x="226.43200000000002" y="-244.6" type="curve" smooth="yes"/>
      <point x="300.968" y="-244.6"/>
      <point x="343.32" y="-214.42"/>
      <point x="375.504" y="-169.36" type="curve"/>
      <point x="331.788" y="-119.88" type="line"/>
      <point x="324.5806784926" y="-129.098322372273"/>
      <point x="310.194" y="-147.88"/>
      <point x="287.812" y="-147.88" type="curve" smooth="yes"/>
      <point x="268.572" y="-147.88"/>
      <point x="257.428" y="-134.6"/>
      <point x="257.428" y="-106.75999999999999" type="curve" smooth="yes"/>
      <point x="257.428" y="-71.91133220338055"/>
      <point x="277.945981481436" y="-27.963888885593203"/>
      <point x="353.12199999999996" y="14.02" type="curve"/>
    </contour>
  </outline>
</glyph>
<glyph name="Delta" format="2">
  <advance width="673.284"/>
  <unicode hex="0394"/>
  <outline>
    <contour>
      <point x="17.428" y="0.0" type="line"/>
      <point x="655.95" y="0.0" type="line"/>
      <point x="655.95" y="128.6" type="line"/>
      <point x="421.31600000000003" y="710.0" type="line"/>
      <point x="252.062" y="710.0" type="line"/>
      <point x="17.428" y="128.6" type="line"/>
    </contour>
    <contour>
      <point x="437.908" y="72.8" type="line"/>
      <point x="565.186" y="149.07999999999998" type="line"/>
      <point x="63.31" y="149.07999999999998" type="line"/>
      <point x="86.586" y="97.60000000000001" type="line"/>
      <point x="323.75" y="690.4" type="line"/>
      <point x="226.632" y="642.38" type="line"/>
    </contour>
  </outline>
</glyph>
<glyph name="horizontalbar" format="2">
  <advance width="789.4300000000001"/>
  <unicode hex="2015"/>
  <outline>
    <contour>
      <point x="0.0" y="375.1" type="line"/>
      <point x="0.0" y="254.9" type="line"/>
      <point x="789.4300000000001" y="254.9" type="line"/>
      <point x="789.4300000000001" y="375.1" type="line"/>
    </contour>
  </outline>
</glyph>
<glyph name="dagger" format="2">
  <advance width="487.932"/>
  <unicode hex="2020"/>
  <outline>
    <contour>
      <point x="200.12" y="464.14" type="line"/>
      <point x="287.812" y="464.14" type="line"/>
      <point x="432.92999999999995" y="386.36" type="line"/>
      <point x="468.068" y="386.36" type="line"/>
      <point x="468.068" y="580.9" type="line"/>
      <point x="432.92999999999995" y="580.9" type="line"/>
      <point x="287.812" y="518.08" type="line"/>
      <point x="200.12" y="518.08" type="line"/>
      <point x="55.001999999999995" y="580.9" type="line"/>
      <point x="19.864" y="580.9" type="line"/>
      <point x="19.864" y="386.36" type="line"/>
      <point x="55.001999999999995" y="386.36" type="line"/>
    </contour>
    <contour>
      <point x="375.622" y="710.0" type="line"/>
      <point x="112.31" y="710.0" type="line"/>
      <point x="112.31" y="666.4" type="line" smooth="yes"/>
      <point x="112.31" y="631.4"/>
      <point x="200.002" y="547.02"/>
      <point x="200.002" y="490.04" type="curve" smooth="yes"/>
      <point x="200.002" y="429.68"/>
      <point x="164.358" y="376.48"/>
      <point x="90.858" y="346.9" type="curve"/>
      <point x="90.858" y="318.3" type="line" smooth="yes"/>
      <point x="90.858" y="283.32"/>
      <point x="160.404" y="193.2"/>
      <point x="206.004" y="0.0" type="curve"/>
      <point x="281.928" y="0.0" type="line"/>
      <point x="327.528" y="193.2"/>
      <point x="397.07399999999996" y="283.32"/>
      <point x="397.07399999999996" y="318.3" type="curve" smooth="yes"/>
      <point x="397.07399999999996" y="346.9" type="line"/>
      <point x="323.574" y="376.48"/>
      <point x="287.93" y="429.68"/>
      <point x="287.93" y="490.04" type="curve" smooth="yes"/>
      <point x="287.93" y="547.02"/>
      <point x="375.622" y="631.4"/>
      <point x="375.622" y="666.4" type="curve" smooth="yes"/>
    </contour>
  </outline>
</glyph>
<glyph name="lira" format="2">
  <advance width="467.88"/>
  <unicode hex="20A4"/>
  <outline>
    <contour>
      <point x="10.120000000000001" y="475.12" type="line"/>
      <point x="10.120000000000001" y="396.46" type="line"/>
      <point x="378.87" y="396.46" type="line"/>
      <point x="378.87" y="475.12" type="line"/>
    </contour>
    <contour>
      <point x="10.120000000000001" y="325.28" type="line"/>
      <point x="10.120000000000001" y="246.62" type="line"/>
      <point x="378.87" y="246.62" type="line"/>
      <point x="378.87" y="325.28" type="line"/>
    </contour>
    <contour>
      <point x="13.156" y="-10.14" type="line"/>
      <point x="187.058" y="16.84"/>
      <point x="281.034" y="140.1"/>
      <point x="281.034" y="261.08" type="curve" smooth="yes"/>
      <point x="281.034" y="382.82"/>
      <point x="253.192" y="464.46"/>
      <point x="253.192" y="545.5" type="curve" smooth="yes"/>
      <point x="253.192" y="598.4"/>
      <point x="258.452" y="628.76"/>
      <point x="280.01" y="628.76" type="curve" smooth="yes"/>
      <point x="288.51800000000003" y="628.76"/>
      <point x="296.50800000000004" y="617.1"/>
      <point x="301.286" y="600.0" type="curve"/>
      <point x="327.516" y="607.1"/>
      <point x="342.12" y="631.96"/>
      <point x="295.426" y="632.24" type="curve"/>
      <point x="295.426" y="540.0" type="line"/>
      <point x="441.156" y="540.0" type="line"/>
      <point x="441.156" y="662.3" type="line"/>
      <point x="419.692" y="684.86"/>
      <point x="363.866" y="719.72"/>
      <point x="263.63" y="719.72" type="curve" smooth="yes"/>
      <point x="116.864" y="719.72"/>
      <point x="45.282000000000004" y="634.56"/>
      <point x="45.282000000000004" y="531.9" type="curve" smooth="yes"/>
      <point x="45.282000000000004" y="412.3"/>
      <point x="123.93599999999999" y="337.86"/>
      <point x="123.93599999999999" y="232.32" type="curve" smooth="yes"/>
      <point x="123.93599999999999" y="167.54"/>
      <point x="81.208" y="128.42"/>
      <point x="13.156" y="106.60000000000001" type="curve"/>
    </contour>
    <contour>
      <point x="140.376" y="126.16" type="line"/>
      <point x="217.97647050563802" y="35.86839309068374"/>
      <point x="255.05058474571598" y="-10.0"/>
      <point x="319.326" y="-10.0" type="curve" smooth="yes"/>
      <point x="399.64" y="-10.0"/>
      <point x="445.804" y="62.24"/>
      <point x="469.092" y="167.12" type="curve"/>
      <point x="387.26" y="200.6" type="line"/>
      <point x="374.022" y="141.66"/>
      <point x="358.9" y="121.28"/>
      <point x="324.692" y="121.28" type="curve" smooth="yes"/>
      <point x="279.58580487801" y="121.28"/>
      <point x="261.276181684194" y="147.1359610251734"/>
      <point x="211.04" y="202.82" type="curve"/>
    </contour>
  </outline>
</glyph>
<glyph name="dong" format="2">
  <advance width="467.88"/>
  <unicode hex="20AB"/>
  <outline>
    <contour>
      <point x="218.442" y="250.0" type="curve" smooth="yes"/>
      <point x="218.442" y="352.2"/>
      <point x="217.731692307676" y="416.28"/>
      <point x="234.952" y="416.28" type="curve" smooth="yes"/>
      <point x="249.666736841804" y="416.28"/>
      <point x="248.802252167004" y="370.276445842525"/>
      <point x="244.696" y="305.26" type="curve"/>
      <point x="279.516" y="313.5" type="line"/>
      <point x="274.16327866400803" y="455.6911417015714"/>
      <point x="235.682" y="523.16"/>
      <point x="157.086" y="523.16" type="curve" smooth="yes"/>
      <point x="65.416" y="523.16"/>
      <point x="8.696000000000002" y="418.46"/>
      <point x="8.696000000000002" y="250.0" type="curve" smooth="yes"/>
      <point x="8.696000000000002" y="85.4"/>
      <point x="61.050000000000004" y="-10.14"/>
      <point x="154.332" y="-10.14" type="curve" smooth="yes"/>
      <point x="222.514" y="-10.14"/>
      <point x="250.45" y="46.980000000000004"/>
      <point x="276.68" y="167.54" type="curve"/>
      <point x="253.804" y="215.34" type="line"/>
      <point x="251.274" y="142.0"/>
      <point x="243.46" y="96.74"/>
      <point x="232.42200000000003" y="96.74" type="curve" smooth="yes"/>
      <point x="219.266" y="96.74"/>
      <point x="218.442" y="150.08"/>
    </contour>
    <contour>
      <point x="234.25799999999998" y="730.7" type="line"/>
      <point x="234.25799999999998" y="99.52000000000001" type="line"/>
      <point x="246.92000000000002" y="112.0" type="line"/>
      <point x="246.92000000000002" y="0.0" type="line"/>
      <point x="452.7" y="0.0" type="line"/>
      <point x="452.7" y="75.1" type="line"/>
      <point x="446.498" y="76.82" type="line" smooth="yes"/>
      <point x="437.178" y="81.12"/>
      <point x="436.908" y="86.4"/>
      <point x="436.908" y="104.22" type="curve" smooth="yes"/>
      <point x="436.908" y="730.7" type="line"/>
    </contour>
    <contour>
      <point x="58.05" y="-91.02000000000001" type="line"/>
      <point x="58.05" y="-189.72" type="line"/>
      <point x="423.704" y="-189.72" type="line"/>
      <point x="423.704" y="-91.02000000000001" type="line"/>
    </contour>
    <contour>
      <point x="148.248" y="663.42" type="line"/>
      <point x="148.248" y="574.44" type="line"/>
      <point x="457.972" y="574.44" type="line"/>
      <point x="457.972" y="663.42" type="line"/>
    </contour>
  </outline>
</glyph>
<glyph name="uni20B4" format="2">
  <advance width="467.88"/>
  <unicode hex="20B4"/>
  <outline>
    <contour>
      <point x="17.522" y="470.44" type="line"/>
      <point x="17.522" y="393.8" type="line"/>
      <point x="450.358" y="393.8" type="line"/>
      <point x="450.358" y="470.44" type="line"/>
    </contour>
    <contour>
      <point x="17.522" y="333.2" type="line"/>
      <point x="17.522" y="256.56" type="line"/>
      <point x="450.358" y="256.56" type="line"/>
      <point x="450.358" y="333.2" type="line"/>
    </contour>
    <contour>
      <point x="231.492" y="720.0" type="curve" smooth="yes"/>
      <point x="132.056" y="720.0"/>
      <point x="63.004000000000005" y="680.14"/>
      <point x="44.846000000000004" y="662.02" type="curve"/>
      <point x="44.846000000000004" y="541.14" type="line"/>
      <point x="167.524" y="541.14" type="line"/>
      <point x="167.524" y="639.56" type="line"/>
      <point x="137.20999999999998" y="642.86"/>
      <point x="130.256" y="593.5"/>
      <point x="143.788" y="580.68" type="curve"/>
      <point x="163.852" y="608.64"/>
      <point x="174.89" y="625.74"/>
      <point x="198.578" y="625.74" type="curve"/>
      <point x="218.56" y="625.74"/>
      <point x="238.188" y="604.52"/>
      <point x="238.188" y="569.0" type="curve" smooth="yes"/>
      <point x="238.188" y="511.4"/>
      <point x="190.40000000000003" y="474.86"/>
      <point x="128.40800000000002" y="453.48" type="curve"/>
      <point x="358.182" y="432.46" type="line"/>
      <point x="407.736" y="461.74"/>
      <point x="425.834" y="505.0"/>
      <point x="425.834" y="565.86" type="curve" smooth="yes"/>
      <point x="425.834" y="652.26"/>
      <point x="371.15000000000003" y="720.0"/>
    </contour>
    <contour>
      <point x="252.474" y="-10.0" type="curve" smooth="yes"/>
      <point x="345.65" y="-10.0"/>
      <point x="424.43399999999997" y="33.7"/>
      <point x="446.616" y="52.68" type="curve"/>
      <point x="446.616" y="196.3" type="line"/>
      <point x="314.148" y="196.3" type="line"/>
      <point x="314.148" y="85.94" type="line"/>
      <point x="345.226" y="82.64"/>
      <point x="353.146" y="134.5"/>
      <point x="343.014" y="136.62" type="curve"/>
      <point x="320.608" y="106.38"/>
      <point x="307.064" y="84.39999999999999"/>
      <point x="273.244" y="84.39999999999999" type="curve" smooth="yes"/>
      <point x="242.436" y="84.39999999999999"/>
      <point x="229.892" y="106.8"/>
      <point x="229.892" y="154.7" type="curve" smooth="yes"/>
      <point x="229.892" y="208.14"/>
      <point x="276.892" y="271.6"/>
      <point x="372.88" y="287.4" type="curve"/>
      <point x="115.64" y="294.44" type="line"/>
      <point x="70.888" y="274.88"/>
      <point x="40.022000000000006" y="227.88"/>
      <point x="40.022000000000006" y="162.4" type="curve" smooth="yes"/>
      <point x="40.022000000000006" y="53.0"/>
      <point x="105.214" y="-10.0"/>
    </contour>
  </outline>
</glyph>
<glyph name="cedi" format="2">
  <advance width="467.88"/>
  <unicode hex="20B5"/>
  <outline>
    <contour>
      <point x="284.07" y="717.2" type="curve" smooth="yes"/>
      <point x="133.362" y="717.2"/>
      <point x="9.438000000000006" y="574.16"/>
      <point x="9.438000000000006" y="355.0" type="curve" smooth="yes"/>
      <point x="9.438000000000006" y="137.42"/>
      <point x="124.116281270678" y="-7.199999999999999"/>
      <point x="281.834" y="-7.199999999999999" type="curve"/>
      <point x="393.650350786454" y="-7.199999999999999"/>
      <point x="448.33072976938996" y="87.72741725310932"/>
      <point x="469.716" y="227.28" type="curve"/>
      <point x="396.168" y="260.72" type="line"/>
      <point x="380.682378037322" y="156.3795703003624"/>
      <point x="349.251604790376" y="87.48"/>
      <point x="305.746" y="87.48" type="curve" smooth="yes"/>
      <point x="224.550899470932" y="87.48"/>
      <point x="198.99" y="174.86"/>
      <point x="198.99" y="355.0" type="curve" smooth="yes"/>
      <point x="198.99" y="528.1"/>
      <point x="213.57" y="631.82"/>
      <point x="301.086" y="631.82" type="curve" smooth="yes"/>
      <point x="343.308" y="631.82"/>
      <point x="366.302" y="610.16"/>
      <point x="384.342" y="577.74" type="curve"/>
      <point x="414.126" y="586.42"/>
      <point x="435.554" y="632.46"/>
      <point x="353.828" y="626.3" type="curve"/>
      <point x="353.828" y="515.16" type="line"/>
      <point x="471.02200000000005" y="515.16" type="line"/>
      <point x="471.02200000000005" y="664.82" type="line"/>
      <point x="453.418" y="679.8"/>
      <point x="393.344" y="717.2"/>
    </contour>
    <contour>
      <point x="233.622" y="790.0" type="line"/>
      <point x="233.622" y="671.98" type="line"/>
      <point x="249.438" y="662.98" type="line"/>
      <point x="249.438" y="48.42" type="line"/>
      <point x="233.622" y="34.42" type="line"/>
      <point x="233.622" y="-120.0" type="line"/>
      <point x="333.6" y="-120.0" type="line"/>
      <point x="333.6" y="33.84" type="line"/>
      <point x="317.784" y="48.72" type="line"/>
      <point x="317.784" y="667.7" type="line"/>
      <point x="333.6" y="679.14" type="line"/>
      <point x="333.6" y="790.0" type="line"/>
    </contour>
  </outline>
</glyph>
<glyph name="manat" format="2">
  <advance width="467.88"/>
  <unicode hex="20BC"/>
  <outline>
    <contour>
      <point x="206.168" y="720.0" type="line"/>
      <point x="206.168" y="159.8" type="line"/>
      <point x="261.712" y="159.8" type="line"/>
      <point x="261.712" y="720.0" type="line"/>
    </contour>
    <contour>
      <point x="233.94" y="505.32" type="curve" smooth="yes"/>
      <point x="292.778" y="505.32"/>
      <point x="300.58" y="394.94"/>
      <point x="281.728" y="0.0" type="curve"/>
      <point x="461.98400000000004" y="0.0" type="line"/>
      <point x="461.98400000000004" y="345.8"/>
      <point x="379.458" y="590.0"/>
      <point x="233.94" y="590.0" type="curve" smooth="yes"/>
      <point x="88.422" y="590.0"/>
      <point x="5.896" y="345.8"/>
      <point x="5.896" y="0.0" type="curve"/>
      <point x="186.152" y="0.0" type="line"/>
      <point x="166.10000000000002" y="394.94"/>
      <point x="173.902" y="505.32"/>
    </contour>
  </outline>
</glyph>
<glyph name="ruble" format="2">
  <advance width="467.88"/>
  <unicode hex="20BD"/>
  <outline>
    <contour>
      <point x="5.895999999999997" y="378.98" type="line"/>
      <point x="226.126" y="378.98" type="line" smooth="yes"/>
      <point x="250.156" y="378.98"/>
      <point x="268.384" y="421.08"/>
      <point x="268.384" y="507.52" type="curve" smooth="yes"/>
      <point x="268.384" y="588.52"/>
      <point x="250.156" y="622.04"/>
      <point x="230.092" y="622.04" type="curve" smooth="yes"/>
      <point x="237.376" y="622.04" type="line"/>
      <point x="237.376" y="87.1" type="line"/>
      <point x="237.376" y="80.1"/>
      <point x="252.168" y="77.1"/>
      <point x="264.618" y="77.1" type="curve" smooth="yes"/>
      <point x="269.266" y="77.1" type="line"/>
      <point x="269.266" y="0.0" type="line"/>
      <point x="5.895999999999997" y="0.0" type="line"/>
      <point x="5.895999999999997" y="77.1" type="line"/>
      <point x="10.143999999999998" y="77.1" type="line" smooth="yes"/>
      <point x="21.357999999999997" y="77.1"/>
      <point x="29.36" y="84.1"/>
      <point x="29.36" y="113.1" type="curve" smooth="yes"/>
      <point x="29.36" y="596.9" type="line" smooth="yes"/>
      <point x="29.36" y="625.9"/>
      <point x="21.357999999999997" y="632.9"/>
      <point x="10.143999999999998" y="632.9" type="curve" smooth="yes"/>
      <point x="5.895999999999997" y="632.9" type="line"/>
      <point x="5.895999999999997" y="710.0" type="line"/>
      <point x="239.73000000000002" y="710.0" type="line" smooth="yes"/>
      <point x="388.378" y="710.0"/>
      <point x="467.88" y="639.58"/>
      <point x="467.88" y="511.96" type="curve" smooth="yes"/>
      <point x="467.88" y="379.32"/>
      <point x="381.918" y="300.32"/>
      <point x="239.906" y="300.32" type="curve" smooth="yes"/>
      <point x="5.895999999999997" y="300.32" type="line"/>
    </contour>
    <contour>
      <point x="318.396" y="164.24" type="line"/>
      <point x="5.895999999999997" y="164.24" type="line"/>
      <point x="5.895999999999997" y="242.9" type="line"/>
      <point x="318.396" y="242.9" type="line"/>
    </contour>
  </outline>
</glyph>
<glyph name="radical" format="2">
  <advance width="616.682"/>
  <unicode hex="221A"/>
  <outline>
    <contour>
      <point x="31.396" y="330.38" type="line"/>
      <point x="265.654" y="330.38" type="line"/>
      <point x="83.962" y="383.18" type="line"/>
      <point x="203.768" y="0.0" type="line"/>
      <point x="376.222" y="0.0" type="line"/>
      <point x="380.48199999999997" y="38.86" type="line"/>
      <point x="261.064" y="422.46000000000004" type="line"/>
      <point x="31.396" y="422.46000000000004" type="line"/>
    </contour>
    <contour>
      <point x="496.64" y="710.0" type="line"/>
      <point x="299.744" y="0.0" type="line"/>
      <point x="413.196" y="0.0" type="line"/>
      <point x="610.28" y="710.0" type="line"/>
    </contour>
  </outline>
</glyph>
<glyph name="notequal" format="2">
  <advance width="467.88"/>
  <unicode hex="2260"/>
  <outline>
    <contour>
      <point x="302.298" y="639.1" type="line"/>
      <point x="30.784000000000002" y="40.56" type="line"/>
      <point x="148.87199999999999" y="40.56" type="line"/>
      <point x="420.386" y="639.1" type="line"/>
    </contour>
    <component base="equal" xOffset="-46.28399999999999" yOffset="1.0"/>
  </outline>
</glyph>
<glyph name="uni25B8" format="2">
  <advance width="478.53"/>
  <unicode hex="25B8"/>
  <outline>
    <contour>
      <point x="108.38" y="10.0" type="line"/>
      <point x="420.28" y="277.0" type="line"/>
      <point x="108.38" y="545.0" type="line"/>
    </contour>
  </outline>
</glyph>
<glyph name="uni25BF" format="2">
  <advance width="522.07"/>
  <unicode hex="25BF"/>
  <outline>
    <contour>
      <point x="484.59000000000003" y="464.0" type="line"/>
      <point x="37.480000000000004" y="464.0" type="line"/>
      <point x="260.77" y="91.0" type="line"/>
    </contour>
    <contour>
      <point x="413.69" y="414.0" type="line"/>
      <point x="407.63" y="430.0" type="line"/>
      <point x="256.71" y="175.0" type="line"/>
      <point x="265.83" y="175.0" type="line"/>
      <point x="114.44" y="430.0" type="line"/>
      <point x="108.38" y="414.0" type="line"/>
    </contour>
  </outline>
</glyph>
<glyph name="uni25C3" format="2">
  <advance width="639.04"/>
  <unicode hex="25C3"/>
  <outline>
    <contour>
      <point x="588.91" y="-40.0" type="line"/>
      <point x="588.91" y="754.0" type="line"/>
      <point x="16.71" y="357.0" type="line"/>
    </contour>
    <contour>
      <point x="536.25" y="54.0" type="line"/>
      <point x="552.4300000000001" y="62.0" type="line"/>
      <point x="119.5" y="363.0" type="line"/>
      <point x="119.5" y="351.0" type="line"/>
      <point x="552.4300000000001" y="652.0" type="line"/>
      <point x="536.25" y="660.0" type="line"/>
    </contour>
  </outline>
</glyph>
<glyph name="baht.proportional" format="2">
  <advance width="642.394"/>
  <outline>
    <contour>
      <point x="281.15200000000004" y="790.0" type="line"/>
      <point x="281.15200000000004" y="676.0" type="line"/>
      <point x="298.026" y="660.0" type="line"/>
      <point x="298.026" y="46.0" type="line"/>
      <point x="281.15200000000004" y="36.0" type="line"/>
      <point x="281.15200000000004" y="-111.4" type="line"/>
      <point x="381.69399999999996" y="-111.4" type="line"/>
      <point x="381.69399999999996" y="38.0" type="line"/>
      <point x="364.18399999999997" y="50.0" type="line"/>
      <point x="364.18399999999997" y="662.0" type="line"/>
      <point x="381.69399999999996" y="673.0" type="line"/>
      <point x="381.69399999999996" y="790.0" type="line"/>
    </contour>
    <contour>
      <point x="388.39" y="708.6" type="curve" smooth="yes"/>
      <point x="31.89" y="708.6" type="line"/>
      <point x="31.89" y="631.5" type="line"/>
      <point x="39.81" y="631.5" type="line" smooth="yes"/>
      <point x="57.296" y="631.5"/>
      <point x="69.076" y="624.5"/>
      <point x="69.076" y="595.5" type="curve" smooth="yes"/>
      <point x="69.076" y="114.5" type="line" smooth="yes"/>
      <point x="69.076" y="85.5"/>
      <point x="57.296" y="78.5"/>
      <point x="39.81" y="78.5" type="curve" smooth="yes"/>
      <point x="31.89" y="78.5" type="line"/>
      <point x="31.89" y="1.4000000000000001" type="line"/>
      <point x="379.96399999999994" y="1.4000000000000001" type="line" smooth="yes"/>
      <point x="533.59" y="1.4000000000000001"/>
      <point x="613.716" y="76.68"/>
      <point x="613.716" y="201.54" type="curve" smooth="yes"/>
      <point x="613.716" y="317.9958777777448"/>
      <point x="525.1179999999999" y="373.1"/>
      <point x="430.318" y="379.98" type="curve"/>
      <point x="439.108" y="371.6" type="line"/>
      <point x="523.788" y="377.62"/>
      <point x="603.066" y="426.5595686046874"/>
      <point x="603.066" y="539.46" type="curve" smooth="yes"/>
      <point x="603.066" y="644.46"/>
      <point x="531.166" y="708.6"/>
    </contour>
    <contour>
      <point x="338.366" y="408.32" type="curve"/>
      <point x="259.146" y="408.32" type="line"/>
      <point x="259.146" y="627.94" type="line"/>
      <point x="348.78" y="627.94" type="line"/>
      <point x="383.51800000000003" y="627.94"/>
      <point x="411.56" y="591.24"/>
      <point x="411.56" y="525.0" type="curve" smooth="yes"/>
      <point x="411.56" y="448.3769530302738"/>
      <point x="387.766" y="408.32"/>
    </contour>
    <contour>
      <point x="327.304" y="332.24" type="line"/>
      <point x="392.332" y="332.24"/>
      <point x="422.516" y="287.8755927536576"/>
      <point x="422.516" y="211.28" type="curve" smooth="yes"/>
      <point x="422.516" y="123.02000000000001"/>
      <point x="387.248" y="81.91999999999999"/>
      <point x="336.954" y="81.91999999999999" type="curve"/>
      <point x="259.146" y="81.91999999999999" type="line"/>
      <point x="259.146" y="332.24" type="line"/>
    </contour>
  </outline>
</glyph>
<glyph name="braceleft.uc" format="2">
  <advance width="325.704"/>
  <outline>
    <contour>
      <point x="274.538" y="258.22" type="curve" smooth="yes"/>
      <point x="274.538" y="300.38"/>
      <point x="257.23998574354675" y="333.6334951023482"/>
      <point x="163.13400000000001" y="347.0" type="curve"/>
      <point x="163.13400000000001" y="352.0" type="line"/>
      <point x="257.23998574354675" y="365.3665048976518"/>
      <point x="274.538" y="399.48"/>
      <point x="274.538" y="440.78" type="curve" smooth="yes"/>
      <point x="274.538" y="496.24"/>
      <point x="224.526" y="556.54"/>
      <point x="224.526" y="609.94" type="curve" smooth="yes"/>
      <point x="224.526" y="655.9"/>
      <point x="260.2817521558551" y="673.4235765607444"/>
      <point x="305.958" y="679.18" type="curve"/>
      <point x="289.43600000000004" y="759.0" type="line"/>
      <point x="166.39390539641374" y="762.5840631446646"/>
      <point x="39.198" y="740.02"/>
      <point x="39.198" y="627.84" type="curve" smooth="yes"/>
      <point x="39.198" y="552.4"/>
      <point x="93.376" y="494.26"/>
      <point x="144.32999999999998" y="401.58" type="curve"/>
      <point x="147.542" y="433.48" type="line"/>
      <point x="22.052" y="387.2" type="line"/>
      <point x="22.052" y="311.8" type="line"/>
      <point x="147.542" y="265.52" type="line"/>
      <point x="144.32999999999998" y="297.42" type="line"/>
      <point x="94.576" y="206.46"/>
      <point x="39.198" y="149.18"/>
      <point x="39.198" y="75.46" type="curve" smooth="yes"/>
      <point x="39.198" y="-41.019999999999996"/>
      <point x="166.39390539641374" y="-63.58406314466461"/>
      <point x="289.43600000000004" y="-60.0" type="curve"/>
      <point x="305.958" y="19.82" type="line"/>
      <point x="260.2817521558494" y="25.57642343946482"/>
      <point x="224.526" y="44.82"/>
      <point x="224.526" y="93.36" type="curve" smooth="yes"/>
      <point x="224.526" y="145.04"/>
      <point x="274.538" y="204.48000000000002"/>
    </contour>
  </outline>
</glyph>
<glyph name="breve.uc" format="2">
  <advance width="417.28000000000003"/>
  <anchor x="208.64" y="694.0" name="_top"/>
  <outline>
    <contour>
      <point x="208.64" y="746.96" type="curve" smooth="yes"/>
      <point x="128.432" y="746.96"/>
      <point x="62.568" y="798.54"/>
      <point x="58.45" y="913.62" type="curve"/>
      <point x="156.65" y="913.62" type="line"/>
      <point x="158.60399999999998" y="875.38"/>
      <point x="178.43200000000002" y="863.4"/>
      <point x="211.17000000000002" y="863.4" type="curve" smooth="yes"/>
      <point x="244.378" y="863.4"/>
      <point x="263.312" y="875.38"/>
      <point x="265.924" y="913.62" type="curve"/>
      <point x="359.5" y="913.62" type="line"/>
      <point x="355.382" y="798.54"/>
      <point x="289.318" y="746.96"/>
    </contour>
  </outline>
</glyph>
<glyph name="cent.altprop" format="2">
  <advance width="517.092"/>
  <outline>
    <contour>
      <point x="336.30600000000004" y="78.96000000000001" type="curve" smooth="yes"/>
      <point x="285.0815294117647" y="78.96000000000001"/>
      <point x="259.052" y="141.9"/>
      <point x="259.052" y="254.02" type="curve" smooth="yes"/>
      <point x="259.052" y="368.12"/>
      <point x="278.7203076923077" y="433.34"/>
      <point x="312.524" y="433.34" type="curve" smooth="yes"/>
      <point x="324.586" y="433.34"/>
      <point x="327.21" y="420.72"/>
      <point x="334.106" y="402.34" type="curve"/>
      <point x="358.91200000000003" y="410.58"/>
      <point x="364.584" y="457.34"/>
      <point x="327.198" y="458.78" type="curve"/>
      <point x="327.198" y="325.56" type="line"/>
      <point x="487.52" y="325.56" type="line"/>
      <point x="487.52" y="465.06" type="line"/>
      <point x="469.986" y="483.76"/>
      <point x="410.04200000000003" y="523.16"/>
      <point x="297.344" y="523.16" type="curve" smooth="yes"/>
      <point x="129.90548881789138" y="523.16"/>
      <point x="23.982000000000003" y="422.92"/>
      <point x="23.982000000000003" y="254.02" type="curve" smooth="yes"/>
      <point x="23.982000000000003" y="84.24"/>
      <point x="137.51583606557375" y="-13.44"/>
      <point x="289.436" y="-13.44" type="curve" smooth="yes"/>
      <point x="404.3" y="-13.44"/>
      <point x="462.196" y="47.58"/>
      <point x="498.546" y="134.36" type="curve"/>
      <point x="432.212" y="181.24" type="line"/>
      <point x="414.49" y="136.1"/>
      <point x="381.27" y="78.96000000000001"/>
    </contour>
    <contour>
      <point x="347.38" y="478.66" type="line"/>
      <point x="347.38" y="623.0" type="line"/>
      <point x="247.402" y="623.0" type="line"/>
      <point x="247.402" y="470.52" type="line"/>
    </contour>
    <contour>
      <point x="247.402" y="37.66" type="line"/>
      <point x="247.402" y="-126.0" type="line"/>
      <point x="347.38" y="-126.0" type="line"/>
      <point x="347.38" y="28.6" type="line"/>
    </contour>
  </outline>
</glyph>
<glyph name="colonsign.proportional" format="2">
  <advance width="626.1080000000001"/>
  <outline>
    <contour>
      <point x="209.922" y="-120.0" type="line"/>
      <point x="274.668" y="-120.0" type="line"/>
      <point x="287.63599999999997" y="32.78" type="line"/>
      <point x="287.33000000000004" y="51.94" type="line"/>
      <point x="334.118" y="645.66" type="line"/>
      <point x="347.156" y="664.82" type="line"/>
      <point x="359.806" y="790.0" type="line"/>
      <point x="294.496" y="790.0" type="line"/>
      <point x="283.352" y="668.88" type="line"/>
      <point x="288.53" y="639.26" type="line"/>
      <point x="246.802" y="91.26" type="line"/>
      <point x="225.31400000000002" y="59.2" type="line"/>
    </contour>
    <contour>
      <point x="317.784" y="-120.0" type="line"/>
      <point x="382.53" y="-120.0" type="line"/>
      <point x="395.368" y="26.4" type="line"/>
      <point x="392.226" y="47.44" type="line"/>
      <point x="439.70799999999997" y="646.82" type="line"/>
      <point x="457.16" y="673.74" type="line"/>
      <point x="467.668" y="790.0" type="line"/>
      <point x="402.358" y="790.0" type="line"/>
      <point x="392.74399999999997" y="684.44" type="line"/>
      <point x="395.344" y="661.54" type="line"/>
      <point x="347.968" y="51.72" type="line"/>
      <point x="331.15200000000004" y="29.1" type="line"/>
    </contour>
    <contour>
      <point x="368.62" y="627.52" type="curve" smooth="yes"/>
      <point x="444.274" y="627.52"/>
      <point x="481.248" y="592.14"/>
      <point x="496.64" y="543.4" type="curve"/>
      <point x="553.748" y="544.76"/>
      <point x="495.746" y="616.32"/>
      <point x="461.996" y="623.06" type="curve"/>
      <point x="461.996" y="489.58" type="line"/>
      <point x="596.1700000000001" y="489.58" type="line"/>
      <point x="596.1700000000001" y="645.54" type="line"/>
      <point x="584.956" y="660.36"/>
      <point x="501.218" y="717.2"/>
      <point x="347.368" y="717.2" type="curve" smooth="yes"/>
      <point x="163.44" y="717.2"/>
      <point x="23.182000000000002" y="572.5003287671426"/>
      <point x="23.182000000000002" y="355.0" type="curve" smooth="yes"/>
      <point x="23.182000000000002" y="138.8118684931578"/>
      <point x="155.262" y="-7.199999999999999"/>
      <point x="345.956" y="-7.199999999999999" type="curve" smooth="yes"/>
      <point x="502.842" y="-7.199999999999999"/>
      <point x="579.2719999999999" y="92.24"/>
      <point x="601.6659999999999" y="237.7" type="curve"/>
      <point x="527.812" y="271.14" type="line"/>
      <point x="512.056" y="158.02"/>
      <point x="458.948" y="82.62"/>
      <point x="382.012" y="82.62" type="curve" smooth="yes"/>
      <point x="257.016" y="82.62"/>
      <point x="220.078" y="177.9782211604364"/>
      <point x="220.078" y="355.0" type="curve" smooth="yes"/>
      <point x="220.078" y="516.9570120805648"/>
      <point x="247.72" y="627.52"/>
    </contour>
  </outline>
</glyph>
<glyph name="dollar.alt" format="2">
  <advance width="467.88"/>
  <outline>
    <contour>
      <point x="215.912" y="106.4" type="curve" smooth="yes"/>
      <point x="176.138" y="106.4"/>
      <point x="144.59594252304402" y="128.65956603338378"/>
      <point x="124.66600000000001" y="167.18" type="curve"/>
      <point x="113.334" y="155.62"/>
      <point x="129.20800000000003" y="105.88"/>
      <point x="160.11" y="108.34" type="curve"/>
      <point x="160.11" y="206.82" type="line"/>
      <point x="7.684000000000005" y="206.82" type="line"/>
      <point x="7.684000000000005" y="81.68" type="line"/>
      <point x="35.656000000000006" y="51.58"/>
      <point x="121.831640625" y="12.0"/>
      <point x="222.572" y="12.0" type="curve" smooth="yes"/>
      <point x="378.43399999999997" y="12.0"/>
      <point x="459.69" y="97.9321476392874"/>
      <point x="459.69" y="240.68" type="curve" smooth="yes"/>
      <point x="459.69" y="366.7374882882308"/>
      <point x="398.804" y="419.56"/>
      <point x="287.53000000000003" y="461.04" type="curve" smooth="yes"/>
      <point x="240.612" y="482.18"/>
      <point x="188.082" y="498.15999999999997"/>
      <point x="188.082" y="549.06" type="curve" smooth="yes"/>
      <point x="188.082" y="587.68"/>
      <point x="205.168" y="608.76"/>
      <point x="233.316" y="608.76" type="curve" smooth="yes"/>
      <point x="261.5" y="608.76"/>
      <point x="281.58012748456804" y="588.760151964868"/>
      <point x="307.17" y="553.1" type="curve"/>
      <point x="317.608" y="565.64"/>
      <point x="305.64" y="614.12"/>
      <point x="274.668" y="610.96" type="curve"/>
      <point x="274.668" y="520.28" type="line"/>
      <point x="423.128" y="520.28" type="line"/>
      <point x="423.128" y="643.18" type="line"/>
      <point x="398.93399999999997" y="668.16"/>
      <point x="331.588" y="698.0"/>
      <point x="238.68200000000002" y="698.0" type="curve" smooth="yes"/>
      <point x="95.08200000000001" y="698.0"/>
      <point x="3.636000000000003" y="624.26"/>
      <point x="3.636000000000003" y="492.04" type="curve" smooth="yes"/>
      <point x="3.636000000000003" y="363.969558181611"/>
      <point x="65.828" y="309.84000000000003"/>
      <point x="144.118" y="274.24" type="curve" smooth="yes"/>
      <point x="212.346" y="243.22"/>
      <point x="270.714" y="237.4"/>
      <point x="270.714" y="175.8" type="curve" smooth="yes"/>
      <point x="270.714" y="128.06"/>
      <point x="249.93200000000002" y="106.4"/>
    </contour>
    <contour>
      <point x="280.516" y="662.54" type="line"/>
      <point x="280.516" y="790.0" type="line"/>
      <point x="190.282" y="790.0" type="line"/>
      <point x="190.282" y="662.54" type="line"/>
    </contour>
    <contour>
      <point x="190.282" y="65.24000000000001" type="line"/>
      <point x="190.282" y="-120.0" type="line"/>
      <point x="280.516" y="-120.0" type="line"/>
      <point x="280.516" y="65.24000000000001" type="line"/>
    </contour>
  </outline>
</glyph>
<glyph name="dollar.proportional" format="2">
  <advance width="518.374"/>
  <outline>
    <contour>
      <point x="208.616" y="790.0" type="line"/>
      <point x="208.616" y="644.78" type="line"/>
      <point x="223.796" y="626.9" type="line"/>
      <point x="223.796" y="78.68" type="line"/>
      <point x="208.616" y="56.92" type="line"/>
      <point x="208.616" y="-120.0" type="line"/>
      <point x="308.594" y="-120.0" type="line"/>
      <point x="308.594" y="55.78" type="line"/>
      <point x="293.978" y="80.82" type="line"/>
      <point x="293.978" y="632.76" type="line"/>
      <point x="308.594" y="651.94" type="line"/>
      <point x="308.594" y="790.0" type="line"/>
    </contour>
    <contour>
      <point x="253.192" y="99.96000000000001" type="curve" smooth="yes"/>
      <point x="182.49200000000002" y="99.96000000000001"/>
      <point x="126.89" y="136.56"/>
      <point x="99.566" y="171.48" type="curve"/>
      <point x="89.50399999999999" y="168.24"/>
      <point x="121.936" y="106.74"/>
      <point x="154.038" y="109.48" type="curve"/>
      <point x="154.038" y="218.0" type="line"/>
      <point x="17.428000000000004" y="218.0" type="line"/>
      <point x="17.428000000000004" y="85.24" type="line"/>
      <point x="54.272000000000006" y="50.14"/>
      <point x="135.904" y="12.0"/>
      <point x="256.722" y="12.0" type="curve" smooth="yes"/>
      <point x="411.572" y="12.0"/>
      <point x="501.19399999999996" y="89.03999999999999"/>
      <point x="501.19399999999996" y="240.68" type="curve" smooth="yes"/>
      <point x="501.19399999999996" y="369.56"/>
      <point x="420.998" y="422.3"/>
      <point x="277.798" y="465.64" type="curve" smooth="yes"/>
      <point x="221.89" y="486.06"/>
      <point x="174.408" y="493.88"/>
      <point x="174.408" y="547.2" type="curve"/>
      <point x="174.408" y="590.1"/>
      <point x="202.026" y="611.04"/>
      <point x="258.934" y="611.04" type="curve" smooth="yes"/>
      <point x="309.594" y="611.04"/>
      <point x="353.134" y="595.26"/>
      <point x="386.742" y="560.82" type="curve"/>
      <point x="397.31" y="573.24"/>
      <point x="383.706" y="621.0"/>
      <point x="348.498" y="617.84" type="curve"/>
      <point x="348.498" y="517.7" type="line"/>
      <point x="473.87" y="517.7" type="line"/>
      <point x="473.87" y="637.46" type="line"/>
      <point x="441.768" y="666.18"/>
      <point x="354.464" y="698.0"/>
      <point x="259.946" y="698.0" type="curve" smooth="yes"/>
      <point x="120.394" y="698.0"/>
      <point x="23.818000000000005" y="626.4"/>
      <point x="23.818000000000005" y="494.48" type="curve" smooth="yes"/>
      <point x="23.818000000000005" y="366.2"/>
      <point x="103.72" y="309.54"/>
      <point x="221.866" y="272.22" type="curve" smooth="yes"/>
      <point x="309.312" y="243.06"/>
      <point x="342.402" y="231.52"/>
      <point x="342.402" y="173.08" type="curve" smooth="yes"/>
      <point x="342.402" y="119.92"/>
      <point x="310.618" y="99.96000000000001"/>
    </contour>
  </outline>
</glyph>
<glyph name="f_f_b.alt" format="2">
  <advance width="1197.636"/>
  <outline>
    <contour>
      <point x="277.374" y="79.94" type="curve" smooth="yes"/>
      <point x="277.374" y="543.12" type="line" smooth="yes"/>
      <point x="277.374" y="619.08"/>
      <point x="285.282" y="651.06"/>
      <point x="324.57399999999996" y="651.06" type="curve" smooth="yes"/>
      <point x="353.322" y="651.06"/>
      <point x="363.278" y="633.36"/>
      <point x="363.854" y="602.7" type="curve"/>
      <point x="386.448" y="624.36"/>
      <point x="383.29400000000004" y="675.52"/>
      <point x="345.956" y="674.3" type="curve"/>
      <point x="345.956" y="543.14" type="line"/>
      <point x="453.394" y="575.94" type="line"/>
      <point x="473.446" y="698.66" type="line"/>
      <point x="450.97" y="716.92"/>
      <point x="387.954" y="736.3"/>
      <point x="301.486" y="736.3" type="curve" smooth="yes"/>
      <point x="160.71" y="736.3"/>
      <point x="47.400000000000006" y="680.76"/>
      <point x="47.400000000000006" y="531.08" type="curve" smooth="yes"/>
      <point x="47.400000000000006" y="102.5" type="line" smooth="yes"/>
      <point x="47.400000000000006" y="81.24000000000001"/>
      <point x="37.692" y="71.66"/>
      <point x="18.945999999999998" y="71.66" type="curve" smooth="yes"/>
      <point x="8.625999999999998" y="71.66" type="line"/>
      <point x="8.625999999999998" y="0.0" type="line"/>
      <point x="300.568" y="0.0" type="line"/>
      <point x="300.568" y="71.66" type="line"/>
      <point x="298.038" y="71.66" type="line" smooth="yes"/>
      <point x="283.846" y="71.66"/>
      <point x="277.374" y="73.80000000000001"/>
    </contour>
    <contour>
      <point x="606.338" y="0.0" type="line"/>
      <point x="606.338" y="71.66" type="line"/>
      <point x="601.854" y="71.66" type="line" smooth="yes"/>
      <point x="587.968" y="71.66"/>
      <point x="575.9300000000001" y="73.80000000000001"/>
      <point x="575.9300000000001" y="79.94" type="curve"/>
      <point x="575.9300000000001" y="574.44" type="line" smooth="yes"/>
      <point x="575.9300000000001" y="636.02"/>
      <point x="589.1800000000001" y="659.02"/>
      <point x="620.0120000000001" y="659.02" type="curve" smooth="yes"/>
      <point x="653.514" y="659.02"/>
      <point x="674.472" y="633.42"/>
      <point x="686.134" y="572.26" type="curve"/>
      <point x="790.76" y="694.7" type="line"/>
      <point x="747.0899999999999" y="722.4"/>
      <point x="688.876" y="747.7"/>
      <point x="594.146" y="747.7" type="curve" smooth="yes"/>
      <point x="460.102" y="747.7"/>
      <point x="345.956" y="695.38"/>
      <point x="345.956" y="542.62" type="curve"/>
      <point x="345.956" y="79.94" type="line"/>
      <point x="345.956" y="73.80000000000001"/>
      <point x="340.684" y="71.66"/>
      <point x="330.54" y="71.66" type="curve" smooth="yes"/>
      <point x="331.47" y="71.66" type="line"/>
      <point x="331.47" y="0.0" type="line"/>
    </contour>
    <contour>
      <point x="943.338" y="263.02" type="curve" smooth="yes"/>
      <point x="943.338" y="161.1"/>
      <point x="935.03" y="96.88"/>
      <point x="904.164" y="96.88" type="curve" smooth="yes"/>
      <point x="872.356" y="96.88"/>
      <point x="866.402" y="144.88"/>
      <point x="853.4100000000001" y="208.76" type="curve"/>
      <point x="805.81" y="155.8" type="line"/>
      <point x="834.6759999999999" y="40.7"/>
      <point x="885.842" y="-10.0"/>
      <point x="984.066" y="-10.0" type="curve" smooth="yes"/>
      <point x="1096.988" y="-10.0"/>
      <point x="1178.008" y="103.3"/>
      <point x="1178.008" y="263.02" type="curve" smooth="yes"/>
      <point x="1178.008" y="419.16"/>
      <point x="1105.59" y="523.16"/>
      <point x="990.656" y="523.16" type="curve" smooth="yes"/>
      <point x="908.1179999999999" y="523.16"/>
      <point x="871.262" y="464.88"/>
      <point x="828.592" y="350.64" type="curve"/>
      <point x="853.846" y="293.24" type="line"/>
      <point x="875.31" y="367.58"/>
      <point x="885.03" y="416.28"/>
      <point x="911.46" y="416.28" type="curve" smooth="yes"/>
      <point x="935.6659999999999" y="416.28"/>
      <point x="943.338" y="363.08"/>
    </contour>
    <contour>
      <point x="875.686" y="730.7" type="line"/>
      <point x="621.318" y="730.7" type="line"/>
      <point x="644.512" y="674.38" type="line"/>
      <point x="644.512" y="-0.41999999999999993" type="line"/>
      <point x="783.322" y="-0.41999999999999993" type="line"/>
      <point x="853.0219999999999" y="105.14" type="line"/>
      <point x="875.686" y="110.68" type="line"/>
    </contour>
    <contour>
      <point x="-6.378" y="513.16" type="line"/>
      <point x="-6.378" y="432.08" type="line"/>
      <point x="349.498" y="432.08" type="line"/>
      <point x="349.498" y="513.16" type="line"/>
    </contour>
    <contour>
      <point x="292.178" y="513.16" type="line"/>
      <point x="292.178" y="432.08" type="line"/>
      <point x="622.436" y="432.08" type="line"/>
      <point x="622.436" y="513.16" type="line"/>
    </contour>
  </outline>
</glyph>
<glyph name="f_f_h.alt" format="2">
  <advance width="1192.0700000000002"/>
  <outline>
    <contour>
      <point x="277.374" y="79.94" type="curve" smooth="yes"/>
      <point x="277.374" y="543.12" type="line" smooth="yes"/>
      <point x="277.374" y="619.08"/>
      <point x="285.176" y="651.06"/>
      <point x="325.38599999999997" y="651.06" type="curve" smooth="yes"/>
      <point x="353.122" y="651.06"/>
      <point x="363.278" y="632.94"/>
      <point x="363.854" y="601.86" type="curve"/>
      <point x="386.448" y="623.94"/>
      <point x="383.20000000000005" y="675.52"/>
      <point x="345.956" y="674.3" type="curve"/>
      <point x="345.956" y="543.14" type="line"/>
      <point x="453.394" y="575.94" type="line"/>
      <point x="473.446" y="697.82" type="line"/>
      <point x="450.97" y="716.5"/>
      <point x="388.26" y="736.3"/>
      <point x="302.298" y="736.3" type="curve" smooth="yes"/>
      <point x="161.416" y="736.3"/>
      <point x="47.400000000000006" y="680.76"/>
      <point x="47.400000000000006" y="531.08" type="curve" smooth="yes"/>
      <point x="47.400000000000006" y="102.5" type="line" smooth="yes"/>
      <point x="47.400000000000006" y="81.24000000000001"/>
      <point x="37.692" y="71.66"/>
      <point x="18.945999999999998" y="71.66" type="curve" smooth="yes"/>
      <point x="8.625999999999998" y="71.66" type="line"/>
      <point x="8.625999999999998" y="0.0" type="line"/>
      <point x="300.568" y="0.0" type="line"/>
      <point x="300.568" y="71.66" type="line"/>
      <point x="298.038" y="71.66" type="line" smooth="yes"/>
      <point x="283.846" y="71.66"/>
      <point x="277.374" y="73.80000000000001"/>
    </contour>
    <contour>
      <point x="345.956" y="79.94" type="line"/>
      <point x="345.956" y="73.80000000000001"/>
      <point x="340.68399999999997" y="71.66"/>
      <point x="330.54" y="71.66" type="curve" smooth="yes"/>
      <point x="331.47" y="71.66" type="line"/>
      <point x="331.47" y="0.0" type="line"/>
      <point x="593.558" y="0.0" type="line"/>
      <point x="593.558" y="71.66" type="line"/>
      <point x="592.746" y="71.66" type="line" smooth="yes"/>
      <point x="584.932" y="71.66"/>
      <point x="575.9300000000001" y="73.80000000000001"/>
      <point x="575.9300000000001" y="79.94" type="curve"/>
      <point x="575.9300000000001" y="574.44" type="line" smooth="yes"/>
      <point x="575.9300000000001" y="636.02"/>
      <point x="589.1800000000001" y="659.02"/>
      <point x="620.012" y="659.02" type="curve" smooth="yes"/>
      <point x="653.514" y="659.02"/>
      <point x="674.472" y="633.42"/>
      <point x="686.134" y="572.26" type="curve"/>
      <point x="790.76" y="694.7" type="line"/>
      <point x="747.0899999999999" y="722.4"/>
      <point x="688.876" y="747.7"/>
      <point x="594.146" y="747.7" type="curve" smooth="yes"/>
      <point x="460.102" y="747.7"/>
      <point x="345.956" y="695.38"/>
      <point x="345.956" y="542.62" type="curve"/>
    </contour>
    <contour>
      <point x="937.984" y="79.94" type="line" smooth="yes"/>
      <point x="937.984" y="73.80000000000001"/>
      <point x="928.4639999999999" y="71.66"/>
      <point x="920.98" y="71.66" type="curve" smooth="yes"/>
      <point x="920.1800000000001" y="71.66" type="line"/>
      <point x="920.1800000000001" y="0.0" type="line"/>
      <point x="1188.6460000000002" y="0.0" type="line"/>
      <point x="1188.6460000000002" y="71.66" type="line"/>
      <point x="1187.116" y="71.66" type="line" smooth="yes"/>
      <point x="1176.702" y="71.66"/>
      <point x="1168.594" y="77.80000000000001"/>
      <point x="1168.594" y="99.06" type="curve" smooth="yes"/>
      <point x="1168.594" y="344.96" type="line" smooth="yes"/>
      <point x="1168.594" y="461.12"/>
      <point x="1109.426" y="523.16"/>
      <point x="1017.898" y="523.16" type="curve" smooth="yes"/>
      <point x="945.1859999999999" y="523.16"/>
      <point x="886.748" y="475.62"/>
      <point x="865.66" y="396.46" type="curve"/>
      <point x="876.4159999999999" y="325.02" type="line"/>
      <point x="885.23" y="375.32"/>
      <point x="898.2919999999999" y="406.84000000000003"/>
      <point x="915.732" y="406.84000000000003" type="curve" smooth="yes"/>
      <point x="932.418" y="406.84000000000003"/>
      <point x="937.984" y="387.46"/>
      <point x="937.984" y="347.72" type="curve" smooth="yes"/>
    </contour>
    <contour>
      <point x="624.66" y="0.0" type="line"/>
      <point x="892.926" y="0.0" type="line"/>
      <point x="892.926" y="71.66" type="line"/>
      <point x="890.3960000000001" y="71.66" type="line" smooth="yes"/>
      <point x="885.3120000000001" y="71.66"/>
      <point x="875.686" y="73.80000000000001"/>
      <point x="875.686" y="79.94" type="curve" smooth="yes"/>
      <point x="875.686" y="730.7" type="line"/>
      <point x="622.942" y="730.7" type="line"/>
      <point x="644.512" y="694.38" type="line"/>
      <point x="644.512" y="79.94" type="line"/>
      <point x="644.512" y="73.80000000000001"/>
      <point x="635.098" y="71.66"/>
      <point x="628.2719999999999" y="71.66" type="curve" smooth="yes"/>
      <point x="624.66" y="71.66" type="line"/>
    </contour>
    <contour>
      <point x="-6.378" y="513.16" type="line"/>
      <point x="-6.378" y="432.08" type="line"/>
      <point x="349.498" y="432.08" type="line"/>
      <point x="349.498" y="513.16" type="line"/>
    </contour>
    <contour>
      <point x="292.178" y="513.16" type="line"/>
      <point x="292.178" y="432.08" type="line"/>
      <point x="622.436" y="432.08" type="line"/>
      <point x="622.436" y="513.16" type="line"/>
    </contour>
  </outline>
</glyph>
<glyph name="f_f_k.alt" format="2">
  <advance width="1239.0700000000002"/>
  <outline>
    <contour>
      <point x="1230.68" y="0.0" type="line"/>
      <point x="1230.68" y="71.66" type="line"/>
      <point x="1229.244" y="71.66" type="line"/>
      <point x="1209.298" y="71.66"/>
      <point x="1191.376" y="80.24000000000001"/>
      <point x="1182.256" y="103.64" type="curve" smooth="yes"/>
      <point x="1050.4940000000001" y="366.48" type="line"/>
      <point x="993.774" y="269.3" type="line"/>
      <point x="1119.158" y="401.96" type="line" smooth="yes"/>
      <point x="1136.268" y="423.92"/>
      <point x="1159.0500000000002" y="441.5"/>
      <point x="1191.0700000000002" y="441.5" type="curve"/>
      <point x="1192.6000000000001" y="441.5" type="line"/>
      <point x="1192.6000000000001" y="513.16" type="line"/>
      <point x="966.638" y="513.16" type="line"/>
      <point x="966.638" y="441.5" type="line"/>
      <point x="969.604" y="441.5" type="line" smooth="yes"/>
      <point x="987.726" y="441.5"/>
      <point x="1023.558" y="438.5"/>
      <point x="1023.558" y="423.5" type="curve"/>
      <point x="891.384" y="279.88" type="line"/>
      <point x="891.384" y="249.94" type="line"/>
      <point x="941.832" y="79.94" type="line"/>
      <point x="941.832" y="73.80000000000001"/>
      <point x="932.206" y="71.66"/>
      <point x="926.558" y="71.66" type="curve" smooth="yes"/>
      <point x="924.028" y="71.66" type="line"/>
      <point x="924.028" y="0.0" type="line"/>
    </contour>
    <contour>
      <point x="-6.378" y="513.16" type="line"/>
      <point x="-6.378" y="432.08" type="line"/>
      <point x="349.498" y="432.08" type="line"/>
      <point x="349.498" y="513.16" type="line"/>
    </contour>
    <contour>
      <point x="292.178" y="513.16" type="line"/>
      <point x="292.178" y="432.08" type="line"/>
      <point x="622.436" y="432.08" type="line"/>
      <point x="622.436" y="513.16" type="line"/>
    </contour>
    <contour>
      <point x="624.46" y="0.0" type="line"/>
      <point x="892.926" y="0.0" type="line"/>
      <point x="892.926" y="71.66" type="line"/>
      <point x="890.3960000000001" y="71.66" type="line" smooth="yes"/>
      <point x="885.1120000000001" y="71.66"/>
      <point x="875.686" y="73.80000000000001"/>
      <point x="875.686" y="79.94" type="curve" smooth="yes"/>
      <point x="875.686" y="730.7" type="line"/>
      <point x="621.318" y="730.7" type="line"/>
      <point x="644.512" y="682.98" type="line"/>
      <point x="644.512" y="79.94" type="line" smooth="yes"/>
      <point x="644.512" y="73.80000000000001"/>
      <point x="634.992" y="71.66"/>
      <point x="628.072" y="71.66" type="curve" smooth="yes"/>
      <point x="624.46" y="71.66" type="line"/>
    </contour>
    <contour>
      <point x="575.9300000000001" y="79.94" type="curve" smooth="yes"/>
      <point x="575.9300000000001" y="574.44" type="line" smooth="yes"/>
      <point x="575.9300000000001" y="636.02"/>
      <point x="589.1800000000001" y="659.02"/>
      <point x="620.0120000000001" y="659.02" type="curve" smooth="yes"/>
      <point x="653.514" y="659.02"/>
      <point x="674.472" y="633.42"/>
      <point x="686.134" y="572.26" type="curve"/>
      <point x="790.76" y="694.7" type="line"/>
      <point x="747.0899999999999" y="722.4"/>
      <point x="688.876" y="747.7"/>
      <point x="594.146" y="747.7" type="curve" smooth="yes"/>
      <point x="460.102" y="747.7"/>
      <point x="345.956" y="695.38"/>
      <point x="345.956" y="542.62" type="curve"/>
      <point x="345.956" y="79.94" type="line" smooth="yes"/>
      <point x="345.956" y="73.80000000000001"/>
      <point x="340.68399999999997" y="71.66"/>
      <point x="330.54" y="71.66" type="curve" smooth="yes"/>
      <point x="331.47" y="71.66" type="line"/>
      <point x="331.47" y="0.0" type="line"/>
      <point x="593.558" y="0.0" type="line"/>
      <point x="593.558" y="71.66" type="line"/>
      <point x="592.746" y="71.66" type="line" smooth="yes"/>
      <point x="584.932" y="71.66"/>
      <point x="575.9300000000001" y="73.80000000000001"/>
    </contour>
    <contour>
      <point x="277.374" y="79.94" type="curve" smooth="yes"/>
      <point x="277.374" y="543.12" type="line" smooth="yes"/>
      <point x="277.374" y="619.08"/>
      <point x="285.282" y="651.06"/>
      <point x="324.57399999999996" y="651.06" type="curve" smooth="yes"/>
      <point x="353.322" y="651.06"/>
      <point x="363.278" y="633.36"/>
      <point x="363.854" y="602.7" type="curve"/>
      <point x="386.448" y="624.36"/>
      <point x="383.29400000000004" y="675.52"/>
      <point x="345.956" y="674.3" type="curve"/>
      <point x="345.956" y="543.14" type="line"/>
      <point x="453.394" y="575.94" type="line"/>
      <point x="473.446" y="698.66" type="line"/>
      <point x="450.97" y="716.92"/>
      <point x="387.954" y="736.3"/>
      <point x="301.486" y="736.3" type="curve" smooth="yes"/>
      <point x="160.71" y="736.3"/>
      <point x="47.400000000000006" y="680.76"/>
      <point x="47.400000000000006" y="531.08" type="curve" smooth="yes"/>
      <point x="47.400000000000006" y="102.5" type="line" smooth="yes"/>
      <point x="47.400000000000006" y="81.24000000000001"/>
      <point x="37.692" y="71.66"/>
      <point x="18.945999999999998" y="71.66" type="curve" smooth="yes"/>
      <point x="8.625999999999998" y="71.66" type="line"/>
      <point x="8.625999999999998" y="0.0" type="line"/>
      <point x="300.568" y="0.0" type="line"/>
      <point x="300.568" y="71.66" type="line"/>
      <point x="298.038" y="71.66" type="line" smooth="yes"/>
      <point x="283.846" y="71.66"/>
      <point x="277.374" y="73.80000000000001"/>
    </contour>
  </outline>
</glyph>
<glyph name="f_j" format="2">
  <advance width="594.264"/>
  <outline>
    <contour>
      <point x="459.58400000000006" y="564.8199999999999" type="curve" smooth="yes"/>
      <point x="532.084" y="564.8199999999999"/>
      <point x="573.906" y="599.0"/>
      <point x="573.906" y="656.78" type="curve" smooth="yes"/>
      <point x="573.906" y="714.42"/>
      <point x="532.084" y="748.6"/>
      <point x="459.58400000000006" y="748.6" type="curve" smooth="yes"/>
      <point x="386.354" y="748.6"/>
      <point x="345.732" y="714.42"/>
      <point x="345.732" y="656.78" type="curve" smooth="yes"/>
      <point x="345.732" y="598.14"/>
      <point x="386.354" y="564.8199999999999"/>
    </contour>
    <contour>
      <point x="-6.378" y="513.16" type="line"/>
      <point x="-6.378" y="432.08" type="line"/>
      <point x="348.78000000000003" y="432.08" type="line"/>
      <point x="348.78000000000003" y="513.16" type="line"/>
    </contour>
    <contour>
      <point x="345.956" y="-26.939999999999998" type="line" smooth="yes"/>
      <point x="345.956" y="-116.47999999999999"/>
      <point x="331.952" y="-145.62"/>
      <point x="297.744" y="-145.62" type="curve" smooth="yes"/>
      <point x="272.244" y="-145.62"/>
      <point x="252.568" y="-135.46"/>
      <point x="236.364" y="-127.74000000000001" type="curve"/>
      <point x="236.364" y="-220.84" type="line"/>
      <point x="248.508" y="-227.7"/>
      <point x="291.78999999999996" y="-236.0"/>
      <point x="346.45000000000005" y="-236.0" type="curve" smooth="yes"/>
      <point x="511.22" y="-236.0"/>
      <point x="575.9300000000001" y="-172.5"/>
      <point x="575.9300000000001" y="0.5799999999999983" type="curve" smooth="yes"/>
      <point x="575.9300000000001" y="513.16" type="line"/>
      <point x="316.36" y="513.16" type="line"/>
      <point x="316.36" y="432.08" type="line"/>
      <point x="331.552" y="432.08" type="line" smooth="yes"/>
      <point x="343.53200000000004" y="432.08"/>
      <point x="345.956" y="421.24"/>
      <point x="345.956" y="403.42" type="curve" smooth="yes"/>
    </contour>
    <contour>
      <point x="295.002" y="0.0" type="line"/>
      <point x="295.002" y="71.66" type="line"/>
      <point x="291.154" y="71.66" type="line" smooth="yes"/>
      <point x="285.812" y="71.66"/>
      <point x="277.374" y="73.80000000000001"/>
      <point x="277.374" y="79.94" type="curve" smooth="yes"/>
      <point x="277.374" y="586.48" type="line" smooth="yes"/>
      <point x="277.374" y="642.9"/>
      <point x="286.118" y="659.02"/>
      <point x="306.97" y="659.02" type="curve" smooth="yes"/>
      <point x="315.96" y="659.02"/>
      <point x="329.258" y="652.88"/>
      <point x="328.622" y="650.9" type="curve"/>
      <point x="328.622" y="735.12" type="line"/>
      <point x="317.808" y="741.12"/>
      <point x="288.63599999999997" y="747.7"/>
      <point x="249.65" y="747.7" type="curve" smooth="yes"/>
      <point x="137.952" y="747.7"/>
      <point x="47.400000000000006" y="695.38"/>
      <point x="47.400000000000006" y="542.62" type="curve" smooth="yes"/>
      <point x="47.400000000000006" y="102.5" type="line" smooth="yes"/>
      <point x="47.400000000000006" y="81.24000000000001"/>
      <point x="37.692" y="71.66"/>
      <point x="18.945999999999998" y="71.66" type="curve" smooth="yes"/>
      <point x="8.625999999999998" y="71.66" type="line"/>
      <point x="8.625999999999998" y="0.0" type="line"/>
    </contour>
  </outline>
</glyph>
<glyph name="five.old" format="2">
  <advance width="467.88"/>
  <outline>
    <contour>
      <point x="233.034" y="-151.0" type="curve" smooth="yes"/>
      <point x="109.062" y="-151.0"/>
      <point x="43.245999999999995" y="-80.7"/>
      <point x="12.462" y="10.64" type="curve"/>
      <point x="99.342" y="66.12" type="line"/>
      <point x="115.064" y="13.119999999999997"/>
      <point x="146.32999999999998" y="-55.74"/>
      <point x="194.766" y="-55.74" type="curve" smooth="yes"/>
      <point x="240.424" y="-55.74"/>
      <point x="257.416" y="-4.079999999999998"/>
      <point x="257.416" y="91.16" type="curve" smooth="yes"/>
      <point x="257.416" y="171.52"/>
      <point x="243.46" y="216.62"/>
      <point x="202.874" y="216.62" type="curve" smooth="yes"/>
      <point x="167.818" y="216.62"/>
      <point x="152.296" y="190.18"/>
      <point x="141.894" y="145.46" type="curve"/>
      <point x="56.284" y="145.46" type="line"/>
      <point x="56.284" y="548.0" type="line"/>
      <point x="418.868" y="548.0" type="line"/>
      <point x="407.93600000000004" y="399.62" type="line"/>
      <point x="138.022" y="399.62" type="line"/>
      <point x="149.48399999999998" y="528.0" type="line"/>
      <point x="149.48399999999998" y="215.0" type="line"/>
      <point x="145.118" y="201.56"/>
      <point x="135.316" y="197.0"/>
      <point x="125.572" y="207.82" type="curve"/>
      <point x="153.732" y="262.68"/>
      <point x="187.47" y="305.0"/>
      <point x="280.01" y="305.0" type="curve" smooth="yes"/>
      <point x="399.828" y="305.0"/>
      <point x="465.326" y="211.6"/>
      <point x="465.326" y="90.3" type="curve" smooth="yes"/>
      <point x="465.326" y="-56.58"/>
      <point x="377.54" y="-151.0"/>
    </contour>
  </outline>
</glyph>
<glyph name="guarani.proportional" format="2">
  <advance width="677.614"/>
  <outline>
    <contour>
      <point x="451.98199999999997" y="362.3" type="line"/>
      <point x="451.98199999999997" y="285.2" type="line"/>
      <point x="450.97" y="285.2" type="line"/>
      <point x="443.261529411746" y="285.2"/>
      <point x="437.60200000000003" y="278.2"/>
      <point x="437.60200000000003" y="249.2" type="curve"/>
      <point x="623.0360000000001" y="249.2" type="line"/>
      <point x="623.0360000000001" y="278.2"/>
      <point x="631.65" y="285.2"/>
      <point x="643.876" y="285.2" type="curve" smooth="yes"/>
      <point x="649.972" y="285.2" type="line"/>
      <point x="649.972" y="362.3" type="line"/>
    </contour>
    <contour>
      <point x="304.522" y="790.0" type="line"/>
      <point x="304.522" y="661.98" type="line"/>
      <point x="317.302" y="652.14" type="line"/>
      <point x="317.302" y="53.3" type="line"/>
      <point x="304.522" y="39.72" type="line"/>
      <point x="304.522" y="-120.0" type="line"/>
      <point x="394.75600000000003" y="-120.0" type="line"/>
      <point x="394.75600000000003" y="38.16" type="line"/>
      <point x="381.41200000000003" y="54.04" type="line"/>
      <point x="381.41200000000003" y="659.54" type="line"/>
      <point x="394.75600000000003" y="669.7" type="line"/>
      <point x="394.75600000000003" y="790.0" type="line"/>
    </contour>
    <contour>
      <point x="350.898" y="-7.199999999999999" type="curve" smooth="yes"/>
      <point x="479.93" y="-7.199999999999999"/>
      <point x="586.78" y="53.5"/>
      <point x="623.0360000000001" y="107.92" type="curve"/>
      <point x="623.0360000000001" y="295.2" type="line"/>
      <point x="437.60200000000003" y="324.7" type="line"/>
      <point x="437.60200000000003" y="118.08" type="line"/>
      <point x="419.998" y="99.66"/>
      <point x="391.426" y="85.2"/>
      <point x="365.408" y="85.2" type="curve" smooth="yes"/>
      <point x="291.581850980388" y="85.2"/>
      <point x="247.29600000000002" y="174.42000000000002"/>
      <point x="247.29600000000002" y="355.0" type="curve" smooth="yes"/>
      <point x="247.29600000000002" y="517.774600000086"/>
      <point x="271.53015625" y="624.8"/>
      <point x="386.46000000000004" y="624.8" type="curve" smooth="yes"/>
      <point x="436.99" y="624.8"/>
      <point x="473.446" y="591.96"/>
      <point x="487.52" y="552.76" type="curve"/>
      <point x="554.572" y="547.34"/>
      <point x="495.24" y="601.7"/>
      <point x="451.688" y="609.86" type="curve"/>
      <point x="451.688" y="498.26" type="line"/>
      <point x="618.988" y="498.26" type="line"/>
      <point x="618.988" y="635.7" type="line"/>
      <point x="601.642" y="662.02"/>
      <point x="518.3979999999999" y="717.2"/>
      <point x="374.31600000000003" y="717.2" type="curve" smooth="yes"/>
      <point x="158.992" y="717.2"/>
      <point x="22.982" y="567.32"/>
      <point x="22.982" y="355.0" type="curve" smooth="yes"/>
      <point x="22.982" y="136.1"/>
      <point x="155.026" y="-7.199999999999999"/>
    </contour>
  </outline>
</glyph>
<glyph name="kip.proportional" format="2">
  <advance width="672.048"/>
  <outline>
    <contour>
      <point x="24.700000000000003" y="412.48" type="line"/>
      <point x="24.700000000000003" y="322.64" type="line"/>
      <point x="655.126" y="322.64" type="line"/>
      <point x="655.126" y="412.48" type="line"/>
    </contour>
    <contour>
      <point x="24.700000000000003" y="0.0" type="line"/>
      <point x="317.196" y="0.0" type="line"/>
      <point x="317.196" y="77.1" type="line"/>
      <point x="310.80600000000004" y="77.1" type="line" smooth="yes"/>
      <point x="301.36800000000005" y="77.1"/>
      <point x="291.99" y="80.1"/>
      <point x="291.99" y="87.1" type="curve" smooth="yes"/>
      <point x="291.99" y="622.9" type="line" smooth="yes"/>
      <point x="291.99" y="629.9"/>
      <point x="314.148" y="632.9"/>
      <point x="338.13" y="632.9" type="curve" smooth="yes"/>
      <point x="347.55600000000004" y="632.9" type="line"/>
      <point x="347.55600000000004" y="710.0" type="line"/>
      <point x="24.700000000000003" y="710.0" type="line"/>
      <point x="24.700000000000003" y="632.9" type="line"/>
      <point x="32.620000000000005" y="632.9" type="line" smooth="yes"/>
      <point x="49.906000000000006" y="632.9"/>
      <point x="61.486000000000004" y="625.9"/>
      <point x="61.486000000000004" y="596.9" type="curve" smooth="yes"/>
      <point x="61.486000000000004" y="113.1" type="line" smooth="yes"/>
      <point x="61.486000000000004" y="84.1"/>
      <point x="49.906000000000006" y="77.1"/>
      <point x="32.620000000000005" y="77.1" type="curve" smooth="yes"/>
      <point x="24.700000000000003" y="77.1" type="line"/>
    </contour>
    <contour>
      <point x="656.962" y="77.1" type="line"/>
      <point x="646.948" y="77.1" type="line" smooth="yes"/>
      <point x="633.45" y="77.1"/>
      <point x="621.506" y="85.26"/>
      <point x="615.046" y="110.1" type="curve" smooth="yes"/>
      <point x="495.522" y="478.96" type="line"/>
      <point x="408.548" y="354.84" type="line"/>
      <point x="563.668" y="596.16" type="line" smooth="yes"/>
      <point x="586.556" y="626.04"/>
      <point x="598.724" y="632.9"/>
      <point x="625.248" y="632.9" type="curve" smooth="yes"/>
      <point x="643.206" y="632.9" type="line"/>
      <point x="643.206" y="710.0" type="line"/>
      <point x="412.15999999999997" y="710.0" type="line"/>
      <point x="412.15999999999997" y="632.9" type="line"/>
      <point x="421.586" y="632.9" type="line" smooth="yes"/>
      <point x="444.18" y="632.9"/>
      <point x="478.30600000000004" y="631.62"/>
      <point x="476.706" y="624.62" type="curve"/>
      <point x="306.546" y="366.28" type="line"/>
      <point x="320.714" y="333.94" type="line"/>
      <point x="369.032" y="87.1" type="line"/>
      <point x="369.032" y="80.1"/>
      <point x="359.536" y="77.1"/>
      <point x="347.99199999999996" y="77.1" type="curve" smooth="yes"/>
      <point x="341.602" y="77.1" type="line"/>
      <point x="341.602" y="0.0" type="line"/>
      <point x="656.962" y="0.0" type="line"/>
    </contour>
  </outline>
</glyph>
<glyph name="lira.proportional" format="2">
  <advance width="529.778"/>
  <outline>
    <contour>
      <point x="353.95799999999997" y="-10.0" type="curve"/>
      <point x="441.156" y="-10.0"/>
      <point x="493.804" y="72.56"/>
      <point x="517.7280000000001" y="176.57999999999998" type="curve"/>
      <point x="426.246" y="208.34" type="line"/>
      <point x="409.336" y="145.95999999999998"/>
      <point x="394.344" y="125.58"/>
      <point x="355.98199999999997" y="125.58" type="curve"/>
      <point x="312.618" y="125.58"/>
      <point x="283.282" y="151.72"/>
      <point x="238.71800000000002" y="208.98" type="curve"/>
      <point x="204.38" y="199.12"/>
      <point x="166.076" y="155.34"/>
      <point x="168.418" y="132.18" type="curve"/>
      <point x="247.496" y="41.74"/>
      <point x="288.118" y="-10.0"/>
    </contour>
    <contour>
      <point x="11.838000000000005" y="476.1" type="line"/>
      <point x="11.838000000000005" y="395.72" type="line"/>
      <point x="401.96999999999997" y="395.72" type="line"/>
      <point x="401.96999999999997" y="476.1" type="line"/>
    </contour>
    <contour>
      <point x="11.838000000000005" y="327.42" type="line"/>
      <point x="11.838000000000005" y="247.04" type="line"/>
      <point x="401.96999999999997" y="247.04" type="line"/>
      <point x="401.96999999999997" y="327.42" type="line"/>
    </contour>
    <contour>
      <point x="308.358" y="629.62" type="curve" smooth="yes"/>
      <point x="321.432" y="629.62"/>
      <point x="332.25800000000004" y="617.96"/>
      <point x="340.178" y="593.98" type="curve"/>
      <point x="369.338" y="602.8"/>
      <point x="371.256" y="632.82"/>
      <point x="331.37600000000003" y="633.1" type="curve"/>
      <point x="331.37600000000003" y="536.26" type="line"/>
      <point x="490.45000000000005" y="536.26" type="line"/>
      <point x="490.45000000000005" y="664.88" type="line"/>
      <point x="451.77" y="693.46"/>
      <point x="383.43600000000004" y="719.72"/>
      <point x="291.648" y="719.72" type="curve" smooth="yes"/>
      <point x="130.538" y="719.72"/>
      <point x="49.824000000000005" y="632.98"/>
      <point x="49.824000000000005" y="527.32" type="curve" smooth="yes"/>
      <point x="49.824000000000005" y="400.84"/>
      <point x="132.374" y="339.58"/>
      <point x="132.374" y="232.32" type="curve" smooth="yes"/>
      <point x="132.374" y="165.07999999999998"/>
      <point x="95.717001693572" y="124.86676268203621"/>
      <point x="11.838000000000005" y="106.88" type="curve"/>
      <point x="11.838000000000005" y="-10.42" type="line"/>
      <point x="207.123600534916" y="13.85064064732996"/>
      <point x="300.274" y="137.5"/>
      <point x="300.274" y="261.08" type="curve" smooth="yes"/>
      <point x="300.274" y="381.1"/>
      <point x="271.714" y="459.02"/>
      <point x="271.714" y="541.78" type="curve" smooth="yes"/>
      <point x="271.714" y="597.96"/>
      <point x="281.43399999999997" y="629.62"/>
    </contour>
  </outline>
</glyph>
<glyph name="one.old" format="2">
  <advance width="467.88"/>
  <outline>
    <contour>
      <point x="370.55" y="121.69999999999999" type="curve" smooth="yes"/>
      <point x="370.55" y="548.0" type="line"/>
      <point x="187.27" y="548.0" type="line"/>
      <point x="159.216" y="499.58"/>
      <point x="122.254" y="472.28"/>
      <point x="25.11200000000001" y="471.14" type="curve"/>
      <point x="25.11200000000001" y="351.8" type="line"/>
      <point x="104.52000000000001" y="350.65999999999997"/>
      <point x="151.89600000000002" y="375.64"/>
      <point x="176.62" y="459.48" type="curve"/>
      <point x="163.66400000000002" y="471.62"/>
      <point x="169.854" y="461.02"/>
      <point x="158.204" y="451.92" type="curve"/>
      <point x="158.204" y="121.69999999999999" type="line" smooth="yes"/>
      <point x="158.204" y="84.1"/>
      <point x="115.04" y="77.1"/>
      <point x="67.65199999999999" y="77.1" type="curve" smooth="yes"/>
      <point x="42.234" y="77.1" type="line"/>
      <point x="42.234" y="0.0" type="line"/>
      <point x="472.846" y="0.0" type="line"/>
      <point x="472.846" y="77.1" type="line"/>
      <point x="459.478" y="77.1" type="line" smooth="yes"/>
      <point x="408.136" y="77.1"/>
      <point x="370.55" y="84.1"/>
    </contour>
  </outline>
</glyph>
<glyph name="plus.sup" format="2">
  <advance width="343.944"/>
  <outline>
    <contour>
      <point x="123.748" y="673.26" type="line"/>
      <point x="123.748" y="363.26" type="line"/>
      <point x="221.066" y="363.26" type="line"/>
      <point x="221.066" y="673.26" type="line"/>
    </contour>
    <contour>
      <point x="297.53200000000004" y="563.76" type="line"/>
      <point x="46.976" y="563.76" type="line"/>
      <point x="46.976" y="472.76" type="line"/>
      <point x="297.53200000000004" y="472.76" type="line"/>
    </contour>
  </outline>
</glyph>
<glyph name="six.den" format="2">
  <advance width="356.064"/>
  <outline>
    <contour>
      <point x="321.21999999999997" y="327.74" type="line"/>
      <point x="216.33154763944" y="318.3093999984312"/>
      <point x="160.334" y="273.12"/>
      <point x="160.334" y="163.22" type="curve" smooth="yes"/>
      <point x="160.334" y="68.6"/>
      <point x="167.09597101448202" y="50.2"/>
      <point x="178.844" y="50.2" type="curve" smooth="yes"/>
      <point x="192.491050847472" y="50.2"/>
      <point x="193.542" y="70.79318095237011"/>
      <point x="193.542" y="129.62" type="curve" smooth="yes"/>
      <point x="193.542" y="172.9"/>
      <point x="191.462814814858" y="204.48"/>
      <point x="173.16" y="204.48" type="curve" smooth="yes"/>
      <point x="162.81927058825397" y="204.48"/>
      <point x="153.13636619641" y="187.2518748055762"/>
      <point x="144.506" y="162.72" type="curve"/>
      <point x="146.154" y="203.45999999999998" type="line"/>
      <point x="152.29249772973702" y="227.5664791999468"/>
      <point x="178.848953271032" y="258.1"/>
      <point x="225.14999999999998" y="258.1" type="curve" smooth="yes"/>
      <point x="294.414" y="258.1"/>
      <point x="337.82399999999996" y="215.38"/>
      <point x="337.82399999999996" y="135.92" type="curve" smooth="yes"/>
      <point x="337.82399999999996" y="44.12154666668186"/>
      <point x="275.48" y="-6.0"/>
      <point x="180.48000000000002" y="-6.0" type="curve" smooth="yes"/>
      <point x="73.606" y="-6.0"/>
      <point x="18.240000000000002" y="49.74"/>
      <point x="18.240000000000002" y="160.78" type="curve" smooth="yes"/>
      <point x="18.240000000000002" y="291.14"/>
      <point x="120.606" y="379.12"/>
      <point x="313.124" y="383.8" type="curve"/>
    </contour>
  </outline>
</glyph>
<glyph name="sterling.alt" format="2">
  <advance width="467.88"/>
  <outline>
    <contour>
      <point x="14.38" y="411.14" type="line"/>
      <point x="14.38" y="307.54" type="line"/>
      <point x="377.834" y="307.54" type="line"/>
      <point x="377.834" y="411.14" type="line"/>
    </contour>
    <contour>
      <point x="13.991999999999997" y="0.0" type="line"/>
      <point x="446.404" y="0.0" type="line"/>
      <point x="446.404" y="247.68" type="line"/>
      <point x="363.772" y="247.68" type="line"/>
      <point x="356.182" y="190.68" type="line" smooth="yes"/>
      <point x="350.616" y="154.68"/>
      <point x="329.834" y="147.68"/>
      <point x="267.678" y="147.68" type="curve" smooth="yes"/>
      <point x="208.01600000000002" y="147.68" type="line"/>
      <point x="117.90000000000002" y="91.1" type="line"/>
      <point x="248.826" y="129.95999999999998"/>
      <point x="272.82" y="199.62"/>
      <point x="272.82" y="274.48" type="curve" smooth="yes"/>
      <point x="272.82" y="377.62"/>
      <point x="240.71800000000002" y="459.3"/>
      <point x="240.71800000000002" y="542.06" type="curve" smooth="yes"/>
      <point x="240.71800000000002" y="594.96"/>
      <point x="246.308" y="625.32"/>
      <point x="266.854" y="625.32" type="curve" smooth="yes"/>
      <point x="275.362" y="625.32"/>
      <point x="282.552" y="614.08"/>
      <point x="289.836" y="592.82" type="curve"/>
      <point x="319.738" y="599.06"/>
      <point x="314.948" y="629.08"/>
      <point x="274.868" y="629.36" type="curve"/>
      <point x="274.868" y="521.64" type="line"/>
      <point x="429.706" y="521.64" type="line"/>
      <point x="429.706" y="662.0" type="line"/>
      <point x="411.278" y="682.84"/>
      <point x="363.49" y="719.72"/>
      <point x="253.074" y="719.72" type="curve"/>
      <point x="109.156" y="719.72"/>
      <point x="34.644000000000005" y="632.84"/>
      <point x="34.644000000000005" y="527.6" type="curve" smooth="yes"/>
      <point x="34.644000000000005" y="399.68"/>
      <point x="111.21600000000001" y="343.84"/>
      <point x="111.21600000000001" y="239.7" type="curve" smooth="yes"/>
      <point x="111.21600000000001" y="181.9"/>
      <point x="81.138" y="141.95999999999998"/>
      <point x="13.991999999999997" y="123.74000000000001" type="curve"/>
    </contour>
  </outline>
</glyph>
<glyph name="three.den" format="2">
  <advance width="313.466"/>
  <outline>
    <contour>
      <point x="126.98400000000001" y="58.08" type="curve" smooth="yes"/>
      <point x="148.954" y="58.08"/>
      <point x="163.746" y="76.22"/>
      <point x="163.746" y="110.9" type="curve" smooth="yes"/>
      <point x="163.746" y="146.32"/>
      <point x="147.542" y="163.44"/>
      <point x="111.098" y="163.44" type="curve" smooth="yes"/>
      <point x="91.952" y="163.44" type="line"/>
      <point x="91.952" y="220.22" type="line"/>
      <point x="106.144" y="220.22" type="line" smooth="yes"/>
      <point x="144.70600000000002" y="220.22"/>
      <point x="161.734" y="233.5"/>
      <point x="161.734" y="278.36" type="curve" smooth="yes"/>
      <point x="161.734" y="305.76"/>
      <point x="154.944" y="318.9"/>
      <point x="138.422" y="318.9" type="curve" smooth="yes"/>
      <point x="118.476" y="318.9"/>
      <point x="103.108" y="299.62"/>
      <point x="98.73" y="279.2" type="curve"/>
      <point x="97.33" y="302.78"/>
      <point x="101.19" y="321.08"/>
      <point x="117.076" y="323.22" type="curve"/>
      <point x="117.076" y="264.08" type="line"/>
      <point x="17.604000000000006" y="264.08" type="line"/>
      <point x="17.604000000000006" y="306.34" type="line"/>
      <point x="35.656" y="344.38"/>
      <point x="82.656" y="378.68"/>
      <point x="159.60399999999998" y="378.68" type="curve" smooth="yes"/>
      <point x="240.74200000000002" y="378.68"/>
      <point x="297.956" y="346.96"/>
      <point x="297.956" y="285.22" type="curve" smooth="yes"/>
      <point x="297.956" y="213.6"/>
      <point x="216.442" y="187.32"/>
      <point x="115.44" y="189.04" type="curve"/>
      <point x="121.724" y="197.76" type="line"/>
      <point x="252.462" y="199.48"/>
      <point x="304.534" y="168.5"/>
      <point x="304.534" y="104.6" type="curve" smooth="yes"/>
      <point x="304.534" y="32.3"/>
      <point x="239.42399999999998" y="-6.86"/>
      <point x="149.06" y="-6.86" type="curve" smooth="yes"/>
      <point x="58.308" y="-6.86"/>
      <point x="17.416000000000004" y="40.02"/>
      <point x="2.1060000000000016" y="94.6" type="curve"/>
      <point x="61.262" y="130.78" type="line"/>
      <point x="73.912" y="99.36"/>
      <point x="96.012" y="58.08"/>
    </contour>
  </outline>
</glyph>
<glyph name="uni20B4.proportional" format="2">
  <advance width="546.088"/>
  <outline>
    <contour>
      <point x="35.044" y="469.04" type="line"/>
      <point x="35.044" y="392.4" type="line"/>
      <point x="511.044" y="392.4" type="line"/>
      <point x="511.044" y="469.04" type="line"/>
    </contour>
    <contour>
      <point x="35.044" y="332.5" type="line"/>
      <point x="35.044" y="255.86" type="line"/>
      <point x="511.044" y="255.86" type="line"/>
      <point x="511.044" y="332.5" type="line"/>
    </contour>
    <contour>
      <point x="248.132" y="625.74" type="curve" smooth="yes"/>
      <point x="277.598" y="625.74"/>
      <point x="296.214" y="601.1"/>
      <point x="296.214" y="563.16" type="curve" smooth="yes"/>
      <point x="296.214" y="504.9"/>
      <point x="249.94400000000002" y="471.5"/>
      <point x="194.236" y="449.42" type="curve"/>
      <point x="415.92600000000004" y="432.46" type="line"/>
      <point x="465.95000000000005" y="461.46"/>
      <point x="484.496" y="501.58"/>
      <point x="484.496" y="559.88" type="curve" smooth="yes"/>
      <point x="484.496" y="648.56"/>
      <point x="423.81" y="720.0"/>
      <point x="270.608" y="720.0" type="curve" smooth="yes"/>
      <point x="156.886" y="720.0"/>
      <point x="92.882" y="679.56"/>
      <point x="73.93599999999999" y="661.16" type="curve"/>
      <point x="73.93599999999999" y="541.14" type="line"/>
      <point x="197.272" y="541.14" type="line"/>
      <point x="197.272" y="640.96" type="line"/>
      <point x="166.7" y="644.26"/>
      <point x="165.7" y="593.22"/>
      <point x="182.07999999999998" y="580.54" type="curve"/>
      <point x="197.76600000000002" y="610.08"/>
      <point x="222.796" y="625.74"/>
    </contour>
    <contour>
      <point x="308.876" y="84.39999999999999" type="curve" smooth="yes"/>
      <point x="271.49" y="84.39999999999999"/>
      <point x="251.34400000000002" y="112.64"/>
      <point x="251.34400000000002" y="160.82" type="curve" smooth="yes"/>
      <point x="251.34400000000002" y="214.26"/>
      <point x="299.25" y="272.02"/>
      <point x="395.79200000000003" y="287.54" type="curve"/>
      <point x="138.022" y="295.0" type="line"/>
      <point x="92.458" y="273.76"/>
      <point x="60.274" y="230.46"/>
      <point x="60.274" y="168.52" type="curve" smooth="yes"/>
      <point x="60.274" y="59.14"/>
      <point x="131.868" y="-10.0"/>
      <point x="289.236" y="-10.0" type="curve" smooth="yes"/>
      <point x="384.436" y="-10.0"/>
      <point x="458.56" y="27.12"/>
      <point x="497.85200000000003" y="57.379999999999995" type="curve"/>
      <point x="497.85200000000003" y="196.57999999999998" type="line"/>
      <point x="365.478" y="196.57999999999998" type="line"/>
      <point x="365.478" y="86.22" type="line"/>
      <point x="400.228" y="82.92"/>
      <point x="405.088" y="139.94"/>
      <point x="394.544" y="143.18" type="curve"/>
      <point x="371.986" y="108.82"/>
      <point x="353.04" y="84.39999999999999"/>
    </contour>
  </outline>
</glyph>
